<?xml version="1.0" encoding="UTF-8"?>
<svg id="Layer_2" data-name="Layer 2" xmlns="http://www.w3.org/2000/svg" viewBox="0 0 301.55 283.68">
  <defs>
    <style>
      .cls-1 {
        fill: #fecd52;
      }

      .cls-2 {
        fill: #ed4c4a;
      }

      .cls-3 {
        fill: #3ea8ab;
      }

      .cls-4 {
        fill: #fffef8;
      }

      .cls-5 {
        fill: #fffefa;
      }

      .cls-6 {
        fill: #60aaae;
      }

      .cls-7 {
        fill: #3fa9ae;
      }
    </style>
  </defs>
  <g id="Layer_2-2" data-name="Layer 2">
    <g>
      <path class="cls-5" d="M81.18,3.62c-10.64.4-20.92,4.27-30.13,9.61s-17.48,12.14-25.71,18.9c-1.1.9-2.27,1.93-2.52,3.33-.14.78.03,1.57.2,2.34,1.06,4.78,2.22,9.53,3.47,14.26,2,7.51,4.28,15.04,8.14,21.79,3.86,6.75,9.46,12.73,16.61,15.8,1.67.72,3.48,1.28,5.29,1.07,2.01-.23,3.78-1.36,5.48-2.47,1.25-.82,2.51-1.64,3.69-2.55,4.03-3.13,7.1-7.31,9.96-11.53,4.02-5.94,7.73-12.07,11.2-18.34,1.23-2.21,2.43-4.46,3.2-6.87,1.01-3.16,1.23-6.52,1.76-9.79.84-5.25,2.47-10.37,2.84-15.67s-.73-11.04-4.53-14.76c-2.45-2.4-5.75-3.69-8.95-4.92"/>
      <rect class="cls-1" x="135.87" y="194.11" width="31.55" height="31.55" rx="3" ry="3"/>
      <rect class="cls-6" x="134.3" y="205.87" width="18.2" height="17.98" rx="3" ry="3"/>
      <rect class="cls-1" x="58.21" y="69.35" width="13.56" height="13.56" rx="3" ry="3"/>
      <rect class="cls-2" x="151.19" y="194.31" width="13.56" height="13.56" rx="3" ry="3" transform="translate(359.06 43.12) rotate(90)"/>
      <rect class="cls-6" x="65.54" y="61.35" width="13.56" height="13.56" rx="3" ry="3"/>
      <path d="M98.22,15.14l88.35-.14c2.15-4.32,3.65-8.9,7.91-11.8,8.98-6.11,19.61-2.29,28.61,1.56s35.51,18.74,39.08,27.63c5.54,13.8-10.19,48.85-23.24,55.84-7.53,4.03-13.82,2.61-21.11-.83-1.48,7.86,5.21,12.12,8.16,18.31,11.71,24.53-3.78,59.85-30.9,66.01.05,7.16,3.15,13.9,4.52,20.89,3.43,17.49,2.19,35.46,3.05,53.23,19.88,3.47,24.99,33.41,2.48,36.9-46.4-2.33-95.66,2.99-141.73,0-9.12-.59-14.43-3.12-20.61-9.65-1.28-1.35-2.2-3.88-3.41-4.84-1.59-1.26-6.21-2.98-8.56-4.51-14.08-9.16-21.24-24.41-20.03-41.23.47-6.48,3.76-19.03,11.42-20.21,16.38-2.54,6.72,18.96,16.8,25.4,5.44-22.96,19.93-41.81,33-60.81-25.39-15.58-15.01-47.06-17.27-71.82-16.44-1.73-24.65-19.25-29.99-32.93-4.54-11.64-8.8-23.8.16-34.56C33.12,17.71,67.97-.04,80.62.02c8.69.04,16.15,6.77,17.6,15.12ZM78.05,7.81c-10.67,1.29-42.39,17.55-48.65,26.3-3.55,4.95-2.75,8.36-1.47,13.84,2.93,12.5,17.88,50.07,35.79,36.99,8.73-6.38,17.94-29.37,21.39-39.81s13.61-39.81-7.06-37.31ZM195.13,15.88c15.82,4.52,22.38,18.58,23.37,34.06.34,5.28-1.05,24.04.36,27.14.26.57,3.12,3.28,3.81,3.75,9.71,6.6,17.57-2.63,22.53-10.39,4.49-7.03,13.58-27.95,9.66-35.55-3.57-6.94-32.59-22.81-40.63-25.38-8.27-2.64-15.86-3.42-19.11,6.38ZM62.48,93.67c.78,14.31-1.3,30.18-.1,44.31,1.32,15.49,14.8,26.8,29.91,27.86,27.18,1.91,56.55-1.51,83.96,0,28.44,1.54,48.37-17.58,45.69-46.44-1.11-12.01-10.48-17.5-11.6-26.91-2.02-16.92,4.7-47.91-5.59-61.11-7.85-10.07-15.29-8.13-26.49-8.58-22.99-.94-46.37.06-69.4-.74-3.55-.12-7.14.15-10.69.02-1.7,14.71-7.09,30.71-13.16,44.26-4.54,10.14-11.12,24.13-22.52,27.34ZM144.24,173.37h-55.36c-1.79,0-10.28-3.15-10.66-2.75,2.26,12.75,15.05,16.56,26.44,17.22,12.84.75,26.73-.24,39.58-.72v-13.75ZM151.8,187.12c13.88-.41,34.06,5.89,35.07-14.44-.24-.34-.88.69-1.02.69h-34.04v13.75ZM127.73,195.37h-25.79c-2.27,0-7.38-1.22-9.81-1.89-7.08-1.95-15.32-6.79-18.69-13.51l-1.44-.1c-9.86,13.42-19.07,27.86-24.24,43.84-5.75,17.75-10.77,49.37,15.64,51.45,14.83,1.17,31.14-.95,46.13,0l2.07-.68c1.45-4.73-2.26-11.34-6.33-13.7-2.29-1.33-7.59-1.43-8.36-4.02-.97-3.25.21-10.8-.22-14.91-.87-8.3-5.23-15.82-12.72-19.6-3.49-1.76-8.75-1.23-7.01-7.16,1.62-5.52,12.68,1.51,15.33,3.65,10.4,8.41,12.49,20.8,12.14,33.59,9.49,2.41,16.79,13.04,14.35,22.78,7.52-.64,16.39.87,23.74.02,8.15-.95,5.98-16.81,5.86-23.08-.05-2.32-1.07-4.19-.68-6.8.47-3.1,3.57-5.1,6.21-2.86,3.95,3.35,1.11,21.63,2.04,27.53.54,3.39,3.3,4.94,6.46,5.23,13.93,1.28,29.85-.99,44.01-.07,10.06-4.07,6.51-17.28-2.58-20.72-2.19-.83-7.98-1.2-8.61-3.08-1.03-18.09.66-37.49-2.5-55.26-.33-1.83-1.57-9.73-2.77-10.3-4.02,6.64-11.95,10.12-19.6,9.62-1.47,10.07,5.23,31.38-9.32,33.66-4.32.68-19.53.59-23.97-.02-5.51-.75-9.61-6.04-9.85-11.47-.06-1.39.56-2.59.54-3.91-.09-6.08,0-12.18-.03-18.25ZM137.86,194.84c-.69.15-1.32.45-1.89.86l-1.02,24.44c.92,1.02,2.14,1.23,3.43,1.38,2.54.29,22.72.26,23.75-.35.49-.29.88-1.13,1.06-1.69.71-2.18.72-18.84.34-21.73-.3-2.25-.82-2.79-3.09-3.09-3.53-.46-19.4-.51-22.57.19ZM36.27,257.95c-1.53-7.16-.34-14.45.54-21.59-6.32-4.65-8.85-11.16-10.09-18.72-.38-2.31.91-6.95-1.95-7.73s-3.91,2.33-4.91,4.47c-6.7,14.23,1.72,37.19,16.4,43.57Z"/>
      <path class="cls-5" d="M62.48,93.67c11.4-3.2,17.98-17.2,22.52-27.34,6.07-13.55,11.47-29.55,13.16-44.26,3.55.13,7.14-.15,10.69-.02,23.02.8,46.41-.19,69.4.74,11.2.46,18.64-1.49,26.49,8.58,10.29,13.21,3.57,44.19,5.59,61.11,1.12,9.41,10.49,14.9,11.6,26.91,2.68,28.86-17.25,47.98-45.69,46.44-27.41-1.51-56.78,1.91-83.96,0-15.11-1.06-28.59-12.37-29.91-27.86-1.2-14.13.88-30,.1-44.31ZM119.95,73.17c-3.02-3.41-10.25-3.15-12.75.92-2.11,3.44-2.01,13.3-.82,17.12,2.13,6.8,13.33,5.37,15.3-.57,1.1-3.33.49-14.97-1.73-17.47ZM182.55,71.74c-6.35,1.44-7.93,18.57-.18,21.2,11.12,3.78,12.95-6.86,11.22-15.35-1.07-5.26-6.19-6.95-11.04-5.85ZM167.61,125.92c9.54-.39,26.21-19.49,13.94-25.98-7.19-3.8-24-3.24-32.1-2.16-3.93.53-7.6,3.48-8.37,7.48-1.71,9,11.04,19.39,19.35,20.62,3.47,20.65-23.22,21.77-33.39,9.32-1.59-1.94-2.96-7.12-6.21-6.25-7.43,1.99,1.62,12.65,4.82,15.2,10,7.98,25.64,8.98,36.01,1.1,6.88,6.37,16.88,6.35,24.15.6,1.98-1.56,7.04-6.66,3.11-8.59s-5.38,2.44-8.3,4.09c-4.68,2.64-11.41,2.84-14.42-2.02.96-4.38,2.98-8.96,1.4-13.4Z"/>
      <path class="cls-4" d="M127.73,195.37c.03,6.07-.06,12.17.03,18.25.02,1.32-.6,2.53-.54,3.91.24,5.43,4.34,10.72,9.85,11.47,4.44.6,19.65.69,23.97.02,14.55-2.27,7.85-23.59,9.32-33.66,7.64.5,15.58-2.98,19.6-9.62,1.2.56,2.45,8.46,2.77,10.3,3.16,17.78,1.48,37.17,2.5,55.26.63,1.88,6.42,2.25,8.61,3.08,9.09,3.44,12.64,16.65,2.58,20.72-14.15-.92-30.07,1.35-44.01.07-3.16-.29-5.93-1.84-6.46-5.23-.93-5.9,1.91-24.17-2.04-27.53-2.64-2.25-5.74-.24-6.21,2.86-.39,2.6.63,4.48.68,6.8.12,6.27,2.29,22.14-5.86,23.08-7.34.85-16.22-.66-23.74-.02,2.44-9.75-4.86-20.37-14.35-22.78.35-12.79-1.74-25.18-12.14-33.59-2.65-2.14-13.72-9.17-15.33-3.65-1.74,5.93,3.52,5.4,7.01,7.16,7.49,3.78,11.86,11.3,12.72,19.6.43,4.11-.75,11.66.22,14.91.77,2.58,6.07,2.69,8.36,4.02,4.08,2.36,7.78,8.97,6.33,13.7l-2.07.68c-15-.96-31.3,1.16-46.13,0-26.42-2.08-21.39-33.71-15.64-51.45,5.17-15.97,14.38-30.42,24.24-43.84l1.44.1c3.38,6.72,11.62,11.56,18.69,13.51,2.42.67,7.54,1.89,9.81,1.89h25.79Z"/>
      <path class="cls-1" d="M195.13,15.88c3.25-9.8,10.84-9.02,19.11-6.38,8.04,2.57,37.06,18.45,40.63,25.38,3.91,7.61-5.17,28.52-9.66,35.55-4.96,7.77-12.82,17-22.53,10.39-.69-.47-3.56-3.18-3.81-3.75-1.41-3.11-.02-21.87-.36-27.14-1-15.47-7.55-29.53-23.37-34.06Z"/>
      <path class="cls-3" d="M144.24,173.37v13.75c-12.84.48-26.73,1.47-39.58.72-11.39-.67-24.18-4.47-26.44-17.22.38-.4,8.87,2.75,10.66,2.75h55.36Z"/>
      <path class="cls-4" d="M36.27,257.95c-14.68-6.37-23.11-29.34-16.4-43.57,1.01-2.14,2.05-5.26,4.91-4.47s1.57,5.42,1.95,7.73c1.24,7.56,3.76,14.07,10.09,18.72-.88,7.13-2.08,14.42-.54,21.59Z"/>
      <path class="cls-7" d="M151.8,187.12v-13.75h34.04c.15,0,.78-1.03,1.02-.69-1,20.33-21.19,14.04-35.07,14.44Z"/>
      <path d="M167.61,125.92c1.57,4.44-.44,9.02-1.4,13.4,3.01,4.86,9.74,4.66,14.42,2.02,2.92-1.65,4.49-5.95,8.3-4.09s-1.13,7.03-3.11,8.59c-7.27,5.75-17.27,5.78-24.15-.6-10.37,7.88-26.01,6.88-36.01-1.1-3.2-2.56-12.26-13.21-4.82-15.2,3.25-.87,4.62,4.31,6.21,6.25,10.18,12.45,36.86,11.33,33.39-9.32-8.3-1.23-21.06-11.62-19.35-20.62.76-4,4.44-6.95,8.37-7.48,8.1-1.08,24.91-1.64,32.1,2.16,12.27,6.48-4.41,25.59-13.94,25.98Z"/>
      <path d="M119.95,73.17c2.22,2.51,2.83,14.15,1.73,17.47-1.97,5.94-13.17,7.37-15.3.57-1.19-3.82-1.3-13.67.82-17.12,2.5-4.07,9.72-4.34,12.75-.92Z"/>
      <path d="M182.55,71.74c4.86-1.1,9.97.6,11.04,5.85,1.73,8.48-.1,19.13-11.22,15.35-7.75-2.64-6.17-19.76.18-21.2Z"/>
      <path class="cls-2" d="M20.45,118.59c2.78-10.64,16.51-8.11,16.56,3.09.03,7-9.03,22.12-16.23,22.4-5.18.21-16.97-9.76-19.28-14.45-6.4-12.96,9.1-19.65,17.94-11.06h1.01Z"/>
      <g>
        <path d="M273.77,51c5.49-.22,6.58,9.68,6,13.77-.86,6.06-2.75,11.04-6.23,15.99-1.82,2.59-10.26,12.98-12.62,6.18-1.38-3.97,3.9-6.42,6.13-9.4,3.61-4.82,5.77-10.15,5.3-16.25-.2-2.56-3.53-10.1,1.42-10.3Z"/>
        <rect class="cls-2" x="269.53" y="94.64" width="13.56" height="13.56" rx="3" ry="3" transform="translate(281.08 -192.88) rotate(70.77)"/>
        <rect class="cls-1" x="286.43" y="44.59" width="13.56" height="13.56" rx="3" ry="3" transform="translate(108.51 -182.08) rotate(41.71)"/>
        <path class="cls-3" d="M291.36,67.93c2.65-.11,3.18,4.68,2.9,6.66-.42,2.93-1.33,5.34-3.02,7.73-.88,1.25-4.96,6.28-6.1,2.99-.67-1.92,1.89-3.11,2.97-4.55,1.75-2.33,2.79-4.91,2.56-7.86-.1-1.24-1.71-4.88.69-4.98Z"/>
      </g>
    </g>
  </g>
</svg>