<?xml version="1.0" encoding="UTF-8"?>
<svg id="Layer_2" data-name="Layer 2" xmlns="http://www.w3.org/2000/svg" viewBox="0 0 400.81 439.12">
  <defs>
    <style>
      .cls-1 {
        fill: #0c223d;
      }

      .cls-2 {
        fill: #ea4b34;
      }

      .cls-3 {
        fill: #fceb24;
      }

      .cls-4 {
        fill: #f2ede1;
      }

      .cls-5 {
        fill: #0b304e;
      }

      .cls-6 {
        fill: #f4ede0;
      }

      .cls-7 {
        fill: #0a304d;
      }

      .cls-8 {
        fill: #0a314d;
      }

      .cls-9 {
        fill: #152137;
      }

      .cls-10 {
        fill: #1a2452;
      }

      .cls-11 {
        fill: #050c23;
      }

      .cls-12 {
        fill: #19d273;
      }

      .cls-13 {
        fill: #fafaf5;
      }

      .cls-14 {
        fill: #f0f1ee;
      }

      .cls-15 {
        fill: #f5eee0;
      }

      .cls-16 {
        fill: #0a1851;
      }

      .cls-17 {
        fill: #e6d227;
      }

      .cls-18 {
        fill: #0d1830;
      }

      .cls-19 {
        fill: #dde0dd;
      }

      .cls-20 {
        fill: #eaedea;
      }

      .cls-21 {
        fill: #0a62a2;
      }

      .cls-22 {
        fill: #f4c52d;
      }

      .cls-23 {
        fill: #16a76b;
      }

      .cls-24 {
        fill: #0c2e4e;
      }
    </style>
  </defs>
  <g id="Layer_1-2" data-name="Layer 1">
    <g id="w8frLJ">
      <g>
        <path class="cls-8" d="M110.61,35.24c-6.56-4.77-14.35-8.88-22.29-10.89-.15-1.37.03-.82.76-1.04,17.46-5.29,37.63-3.66,53.32,5.8.77.47,2.74,2.38,3.26,2.46,2.21.33.24-3.81-.23-4.97-2.92-7.25-9.44-16.13-14.38-21.92-.35-.41-2.61-2.85-2.3-3.13,10.78,2,20.95,7.21,29.03,14.51,3.83,3.46,6.49,7.27,8.31,12.17.58,1.57,1.76,7.76,2.07,8.04.81.75.9-.3,1.18-.65,1.97-2.53,3.31-4.65,5.55-7.12,5.99-6.59,13.95-13.5,22.81-15.55-2.93,7.9-7.78,14.94-11.51,22.44-.27.55-.91,1.19.1,1.4.17.01.35-.02.52,0-.21,1.68.5.86,1.47.7,4.65-.79,10.81-2.62,15.4-2.27,4.24.33,8.82,2.81,13.19,2.61,2.03.46,4.17,1.09,6.22,1.56l81.38,18.66c11.11,2.67,22.4,5.57,33.18,8.29.16.04.35-.04.52,0,.44.09.95.4,1.56.52.96.19,2.12.05,3.11.52.31.45.87,1.13,1.04,1.56,2.31,5.79,1.48,24.91,1.56,32.14-.86.54-.52,1.97-.53,2.84-.3,23.87-.38,47.94,0,71.8.03,1.55,1.54,3.48-.52,4.93l1.08.99c-1.34,13.12.25,26.42-.79,39.44l.2,21.17c3.16,2.19,6.55,5.32,9.36,8.12.17.17.35.35.52.52.51.51,1.67,2.14,2.59,3.11.5.53,1.56,1.02,2.07,1.56l1.04,1.04c1.07,1.19,2.17,3.32,3.11,4.67,3.76,5.42,8.04,11.38,10.98,17.27,2.2,4.42,3.76,9.66,5.36,14.34.53.63,2.42.99,3.34,1.32.56.2,1.77,1.3,2.09.24,2.49,1.15,3.81,2.21,5.7,4.15l2.68,4.32c3.03,6.28,3.63,13.43-.52,19.39-.1.47.4.57.43.66,1.04,3.16,3.41,6.4,4.67,9.85l2.09,15.27c-.52,10.49-4.1,25.75-14.54,30.61-1.8.84-6.3,1.4-7.14,1.94-.35.22-.37,1.12-.63,1.43-.16.18-.35.34-.52.52-5.02,4.24-9.37,5.2-15.83,5.21-1.97,0-2.22-.97-4.38-.02-.5.22-1.04.73-1.56,1.04-13.68,7.54-34.62-.82-23.33-18.14,0-.77-.73-.48-1.29-.53-5.17-.45-6.35.11-11.67-1.55-.14-.04-.32-.53-1.04-.52l-.52-.52c-.17-.2-.82-.3-1.04-.52l-.52-.52c-.27-.24-.67-.69-1.04-1.04l-1.04-1.04c-.17-.16-.37-.35-.52-.52-1.89-4.08-2.31-6.47-1.56-10.89.03-.17-.03-.35,0-.52l1.56-2.07c.33-.2.7-.33,1.04-.52,3.72-2.08,5.73-2.45,9.76-3.48.9-.23,1.95.32,1.64-1.18,1.29-.39,1.72-.41,3.11-1.04.38-.17.67-.3,1.04-.52,1.83-1.06,3.05-1.79,4.26-3.78,2.05-3.39,4.8-10.8,6.63-14.88.06-.14-.07-.38,0-.52l.52-.52c.05-.11.63-.17.52-1.04.35-.19.42-.96.52-1.04,1.35-1.06,2.67-2.68,4.15-4.15.17-.17.35-.34.52-.52,2.69-2.8,1.2-4.23,1.69-7.9.4-3,2.1-5.39,2.98-8.17.16-.17.31-.25.52-.52l1.04-1.04c.26-.22.43-.45.52-.52,2.77-2.28,5.67-3.3,1.56-6.74-.03-.17.03-.35,0-.52l-.52-1.56v-.52l-.52-.52c.04-.62-.34-1.06-.52-1.56-.39-1.06-1.03-2.54-2.07-3.11-.05-.15.06-.37,0-.52-.62-1.7-1.98-3.27-3.11-4.67-.07-.13.07-.39,0-.52-.96-1.77-2.87-3.4-3.12-5.7-.91-.24-.73.14-1.03.52-1.52,1.89-.03,10.96.02,13.72.1,5.83.43,13.01,0,18.7-.12,1.64-.67,2.85-1.06,4.39-.38.48-.67,1.06-1.04,1.56-.15.06-.37-.06-.52,0-2.83,1.05-5.88,1.45-8.81,2.07-3.94.84-7.96,1.72-11.92,2.59-.57.13-1.41-.05-2.19.12-22.54,5.02-45.12,10.33-67.47,15.91l-.32,1.06c1.13,0,1.75,1.26,2.59,1.57.15.05.35-.05.52,0,.24.87,1.06,1.09,1.56,1.56.17.15.36.35.52.52l.52.52c.22.25.3.78.52,1.04l.52.52c.49.57,1.35,1.28,1.56,1.56l.52,1.04.52.52c.05.33-.07.74,0,1.04.28,1.19,2.43,4.3,3.11,5.96,4.2,10.24,4.61,21.78.55,32.17-.9,2.31-5.14,8.2-5.21,9.56,0,.17-.04.4,0,.52.49,1.56,5.49,1.82,7.25,2.34,11.91,3.51,15.12,6.84,24.88,13.22,5.13,3.35,8.33,3.93,13.48,6.22.34.15.68.36,1.04.52,2.11.96,4.41,2.93,6.74,3.63.7.61,1.76,1.8,2.59,2.59l1.56,4.67.86.94,9.51,1.66-.06,1.49c-6.99,2.64-14.53,3.52-21.97,4.21-1.22.11-1.74-.45-.78,1.03-1.37.09-2.78-.09-4.15,0-18.75,1.18-37.79,1.59-56.78,2.05-50.83,1.24-101.96,2.14-152.64-2.57-6.53-.61-11.81-1.58-18.14-2.59-.34-.05-1.09.04-1.04.52-1.25-.41-1.38-.96-1.56-1.04-4.29-2.57,2.8-3.51,4.66-3.89,7.82-1.63,16.52-2.15,24.37-2.85,5.73-.51,11.51-.19,17.1-1.56.37-.34-2.82-5.06-3.21-5.86-.64-1.31-1.03-5.06-2.49-5.54-1.16-.39-.85.24-1.09.74-1.43,2.85-3.31,6.54-3.57,9.63l-2.78-.06-7.58-1.49c-.19-.14-.34-.36-.52-.52-1.08-.92-3.92-3.31-4.13-4.42-.47-12.32,5.82-23.65,14.5-31.87,5.42-3.48,10.19-6.25,16.58-8.04,6.26-1.75,6.6-.03,11.42-5.68,4.48-5.26,7.2-13.83,4.65-20.49l-32.13-17.62c.18,8.7-3.99,17.98-10.89,23.33l-5.81,2.74c-8.21.64-13.19,7.91-21.43,8.16-1.91.06-3.76-.9-5.66-.53-1.11.22-2.23,1.64-3.38,2.07-3.36,1.25-7.11,1.5-10.62,2.11l-9.6-1.07c-10.46-3.67-21.79-16.36-16.59-27.99,2.29-.85,2.64-3.36,4.7-4.89,1.67-1.25,3.89-1.78,5.72-2.71l-.64-8.14c-.32-.98-6.58-1.66-8.36-2.53-8.12-3.94-7.68-15.46-5.63-22.86-.35-1.07-3.74-2.78-4.61-3.45-3.49-2.71-5.1-4.41-7.26-8.29-1.7-3.06-3.62-6.92-4.42-10.35-.88-3.74-.38-7.3-1.28-10.9.02-.17-.02-.35,0-.52h1.04c.14-.78-.18-1.9,0-2.59,2.25-8.82,6.49-14.76,11.92-21.77.52-.68,1.02-1.41,1.56-2.07.47-.57.95-1.12,1.56-1.56.3-.22.45-.47.52-.52,1.59-1.11,2.38-2.09,3.63-3.11.19-.15.33-.37.52-.52,1.17-.96,2.83-1.28,3.63-2.59.13-.07.37.07.52,0s1.63-1.36,1.59-1.79c-.04-4.41-.06-8.83-.03-13.24.65-.59.92-1.46.95-2.32.1-3.71-.45-8.56-.95-12.19v-.52c.73-29.19-.04-58.74,0-88.12,0-8.11-.04-16.25,0-24.36,0-.17,0-.35,0-.52.03-6.33-.5-13.8-.02-19.95.1-1.31.4-2.2,1.57-2.86,5.44-2.55,12.95-1.97,18.66-4.15l8.29-1.56,39.91-7.26c1.26-.22,2.78-.28,4.15-.52l24.88-4.15c.11-.48-2.13-2.98-2.56-3.39-1.24-1.16-3.2-2.51-4.7-3.35-.18-.16-.33-.36-.52-.52l-1.56-1.56c-.72-.59-1.74-.78-2.07-1.04l-.52-.52c-.6-.46-1.14-1.26-1.56-1.56ZM311.22,72.56c-1.19-1.3-3.95-1.79-5.7-2.33-6.75-2.06-13.76-3.61-20.62-5.29-24.4-6.01-49.61-12.36-74.13-17.62-2.71-.58-6.55-1.75-9.18-1.75-5.95,0-13.25,2.48-19.35,2.72-2.48,8.16-8.18,15.2-15.48,19.51-2.39,1.41-5.73,3.23-8.45,2.96,1.34-.73,7.96-14.17,6.48-14.26-11.28,14.84-32.99,18.8-50.54,15.55-.25-1.22.16-.83.67-1.16,1.67-1.08,3.5-1.61,5.28-3,3.16-2.47,5.95-6.14,7.53-9.83l-71.02,11.92,1.67,1.17,93.52,31.31,159.33-29.9ZM38.04,146.18c-.01,2.07.01,4.15,0,6.22-.86.54-.52,1.97-.53,2.84-.19,18.38-1.35,41.02.53,58.84.02.17.49.4.52.52.05.23.03,4.15,0,4.67,0,.06-.44.12-.52,1.04-.09,1.02.06,2.09,0,3.11.86.21,1.39-.27,2.07-.52,10.56-3.85,44.58-18.92,46.65,1.82,1.66,16.7-13.22,15.37-24.88,18.13-2.44.58-19,5.1-19.17,6.49l-4.18,1.35.55,25.6c12.03-5.48,27.8-1.5,31.17,12.37,17.17-.41,29.67,12.64,34.5,28.1l38.79,21.21c1.31.39.75-3.2.76-4.14.6-32.63-.45-65.34,0-97.97h1.04c-.15-1.56.69-3.96-1.04-4.67v-1.04c1.68.27.94-.78.95-1.75,0-.89,0-1.81,0-2.71,0-.98.72-2.02-.95-1.75v-4.67c1.22-1.83.74-5.43,0-7.26v-.52c0-.17,0-.35,0-.52.4-.07,1.04.23,1.04-.26l-1.04-.26v-3.11c.71-.63.72-1.42,0-2.07v-2.07c.86-.54.52-1.97.53-2.84.2-18.97.74-39.23,0-58.09-.04-1,.53-2.08-1.04-1.79-.06-3.27.05-6.57,0-9.85-.1-6.08-.04-12.16-.83-18.2l-103.37-34.67-1.56,1.27v67.15ZM334.03,81.38l-8.48.6-.78.77c.15,8.12,2.29,16.42,5.54,23.86,1.05,2.41,2.48,5.54,4.23,7.43l-.51-32.66ZM316.92,105.74s-.4.1-.51-.27c-2.16-7.15-2.8-14.17-3.89-21.5l-4.82,1.13c-2.38,8.14-6.69,15.52-12.73,21.48-3.91,3.86-10.3,9.24-15.89,9.26,9.32-7.82,17.96-17.41,21.51-29.3l-145.4,27.48-.55,1.25c-.19,67.2.44,134.86.04,201.17,0,1.24.15,3.02.19,4.4.03.81-.21,1.8.84,2.08v1.04c-1.69-.25-.92.7-.88,1.66.14,3.96.25,8.01.39,12.07.03.93-.83,5.78.49,5.97,24.41-5.51,48.81-11.13,73.2-16.74,31.91-7.33,63.85-14.84,95.79-22.14,2.91-.66,6.62-1.24,9.33-2.07.32-.1,1.04.31,1.06-.3l-.11-171.2c-3-.63-3.79-3.98-6.66-4.75-.17-.17-.35-.34-.52-.52-.05-2.27-2.09-3.06-2.85-4.15-1.58-2.28-2.28-4.66-4.41-6.74-.05-.15.06-.37,0-.52-.56-1.5-.19-3.44-1.71-4.27l-1.92-4.54ZM26.63,259.18c-3.86,3.49-2.01,13.15,1.56,16.59,1.53-5.47.05-11.5,0-17.1-.96-.2-1,.01-1.55.52ZM35.96,290.28c-.59.53-2.04,1.99-2.59,2.59-4.18,4.61-9.06,11.92-6.85,18.51.88,2.62,5.76,5.48,7.88,3.78,1.25-1,2.69-5.2,3.73-6.9,2.75-4.48,5.35-7.09,9.23-10.21,4.71-2.94,9.32-5.28,15.03-5.71-2.41-7.84-9.77-10.15-17.33-7.74-3.75,1.2-6.31,3.19-9.1,5.67ZM83.13,302.72c-7.64-6.67-20.33-7.04-29.38-3.2-2.59,1.1-6.8,4.09-8.46,6.31-.25.33-.54.57-.52,1.04-.17.17-.36.34-.52.52-6.12,6.84-6.96,14.83-4.15,23.33.87,2.63,1.68,4.87,3.11,7.26.97,1.61,1.07,1.42,2.07,2.59.16.18.36.33.52.52.59,1.52,1.72,2.79,3.11,3.63.07.12-.06.36,0,.52-2.99,1.11-6.87-1.52-9.33-3.11-.38-.25-.9-.32-1.39-.67s-.55-1.56-1.56-1.86c-.83-.24-2.96.58-3.79.97-.14.07-.55-.14-.91.12-.13.09-1.85,2.36-1.92,2.5-1.75,3.76-.33,7.99,2.31,10.86,1.18,1.28,3.78,3.6,5.18,4.67,6.52,4.95,15.93,4.5,21.77-1.56.17-.17.36-.34.52-.52.71.08,1.47-.75,1.87-1.23,3.45-4.15,4.83-10.12,5.64-15.36,2.2,2.91,2.66,7.39,2.1,10.91-.36,2.29-1.88,4.67-1.84,6.71,0,.18-.04.39,0,.52.08.27-.05.71,0,1.04,10.02-1.27,14.81-10.37,16-19.5l.07-9.52c.21.22.87.32,1.04.52,3.01,6.18,3.18,11.93,2.6,18.66,1.03-.19,1.45-.97,2.07-1.55.57-.55,1.58-1.53,2.07-2.07,9.04-9.96,6.9-28.02-2.07-37.32-1.47-1.53-4.58-4.57-6.22-5.7ZM386.9,309.98c.79-.76-.89-3.03-1.33-3.59-5.62-7.19-17.02-7.25-23.8-1.58-2.03,1.7-5.62,6.41-3.63,8.8,9.22-4,20.57-1.32,27.98,5.17,1-.55.6-1.36.78-2.06.59-2.42.77-4.32,0-6.74ZM384.31,325.01c-4.22-7.21-13.76-8.84-21.55-7.82-.92.12-.63.86-1.13,1.04-19.57,6.93-13.02,24.89-27.66,32.9-2.69,1.47-10.37,3.21-11.63,4.43-1.36,1.31-.61,2.86.29,4.18s2.82,2.32,4.44,2.56c8.39,1.26,14.67-3.06,20.44-8.26.18-.16.34-.35.52-.52.95-.89,2.08-1.78,3.11-2.59.32,7.03-1.79,14.33-6.74,19.44-2.03,2.09-4.19,2.67-5.7,5.45-1.62,2.98-1.74,4.47,1.04,6.74.92.75.88,1.15,2.46,1.43,12.42,2.22,24.32-15.38,25.54-26.31.52-.22,1.03,1.21,1.03,1.29v8.29c0,.53-2.44,7.02-2.91,7.97-.74,1.5-2.19,2.89-2.9,4.38-.53,1.11-.12.49.11.87,1.21,2.05,3.79.06,5.18-.52.4-.17.67-.33,1.04-.52.63-.33,1.5-.44,2.04-.82.64-.45.79-1.02,1.07-1.26.73-.62.95-.89,1.56-1.56,1.25-1.36,3.03-3.49,3.63-5.18.19-.53.35-1.01.52-1.56,2.1-2.64,2.63-6.58,3.11-9.85l2.07-1.55c1.33,3.69,1.54,8.15.53,11.92.33-.02.76.08,1.04,0,1.36-.36,1.17-1.43,1.56-2.07,1.18.2,1.86-1.67,2.34-2.59,1.12-2.12,2.17-4.97,2.84-7.26,1.68-5.77,1.49-11.3,0-17.11-1.09-4.26-2.19-9.06-5.18-12.44-.06-.15.06-.37,0-.52-.52-1.39-1.18-1.6-2.07-2.59ZM185.25,348.34c-2.6.56-19.82,4.39-20.53,5.18-.35.37.32.49.31.52-.05.33.05.71,0,1.04,0,.06-.39.14-.52,1.04-2.72,18.91-8.42,26.84-23.33,38.36-.37.29-1.73.25-1.98,1.29,3.03,4.35,4.6,9.41,6.64,14.26.2.48-.3,1.67.86,1.99,6.04,1.27,12.13,2.74,17.28,6.3h.52c.29.25.57.65,1.04,1.04v.52c.31.49.77,1.31,1.26,1.59,1.78,1.02,8.87-.03,11.42-.05,8.12-.08,16.29-.12,24.41,0,6.1.09,12.48,1.16,18.65.55.54-.05,1.26.25,1.29-.53l-1.56-3.11c0-.17.01-.35,0-.52-.26-3.08-.83-5.77-.46-9.02.32-2.91,2.22-6.19,2.54-8.61.02-.17-.03-.35,0-.52.75-.66,1.2-1.68,1.56-2.59.06-.15-.06-.37,0-.52,1-.36,1.1-1.34,1.56-2.07.2-.32.31-.72.52-1.04.34-.51.69-1.06,1.04-1.56.37-.54,1.13-1.54,1.56-2.07.18-.22.67-.59,1.04-1.04.33-.39.4-.9.52-1.04.16-.18.36-.33.52-.52,3.85-4.52,10.13-8.59,10.89-15.29,1.55-13.72-7.98-24.37-17.77-32.28-.98.25-1.98.46-2.98.65-12.05,2.35-24.25,5.44-36.28,8.04ZM256.27,421.95c.72-.61-2.47-2.67-2.95-3.01-1.91-1.38-5.03-3.21-7.16-4.26-.48-.24-.37-.87-1.05,0l.23,7.56,10.92-.29Z"/>
        <path class="cls-20" d="M70.18,430.76c.18.08.3.63,1.56,1.04.27.09.74-.08,1.04,0,6.92,1.99,11.23,1.93,18.14,2.59,53.67,5.17,108.52,4,162.49,2.57,13.54-.36,26.92-.52,40.45-1.54,1.92-.14,4.66-.48,6.48-1.03,1.37-.09,2.78.09,4.15,0,6.07-.41,16.64-2.08,22.29-4.15-.07,1.6-.55,1.14-1.49,1.38-9.38,2.47-16.65,3.02-26.16,3.84-36.22,3.12-72.6,3.05-108.94,3.56-32.7.45-65.5-.69-97.51-3.54-6.95-.62-15.18-.37-21.64-3.24-.86-.38-2.67-.72-2.41-1.99.56.28,1.12.32,1.56.52Z"/>
        <path class="cls-13" d="M343.87,68.94c1.97.34,1.97,2.2,2.09,3.87.82,10.79-.19,23.22-.04,34.25.23,17.53,1.06,35.26.52,52.87v5.66c1.82,24.03-2.28,51.43.02,75.19.1,1.03.37,1.58,1.04,2.32-.3-.31-1.03-.44-1.29-1.02-.6-22.05-.12-44.26-.27-66.37,0-1.28-.38-2.38-.52-3.63.83-.49.85-2.59,0-3.11v-1.56c0-.1.35-.23.35-.41,0-.41-.35-.58-.35-.63-.12-21.73.22-43.56,0-65.31-.07-7.23.75-26.35-1.56-32.14Z"/>
        <path class="cls-14" d="M27.67,64.79c-1.41.84-1.9,2.84-2.08,4.4-1.37,12.33-.07,30.34,0,43.29.14,24.71.54,49.77.52,74.39,0,4.24.52,9.41,0,13.21-.86-.54-.52-1.97-.53-2.84-.44-35.79-1.27-71.23-1.07-106.79,0-1.53.8-3.04.62-4.7-.11-.98-1.05-.71-1.03-.97.1-1.63.95-4.13.99-5.76.1-3.68-1.05-8.02.11-11.77.45-1.45,1.22-2.19,2.46-2.98v.52Z"/>
        <path class="cls-20" d="M342.32,312.05c.32,1.47-.79.95-1.55,1.27-11.24,4.75-27.69,5.9-38.22,9.59-3.52,1.23-10.91,1.91-14.37,2.65-8.64,1.86-15.47,4.04-24.09,5.85-2.46.52-4.01.71-6.26,1.05-1.61.24-2.89.89-3.62,2.39l-1.55-2.07,32.64-7.54c12.07-2.79,24.23-5.29,36.3-8.02,3.93-.89,8.2-1.62,11.92-3.11,2.93-.63,5.98-1.03,8.81-2.07Z"/>
        <path class="cls-14" d="M119.42,47.68c-6.08,1.48-13.88,2.51-20.22,3.63-1.37.24-2.88.29-4.15.52-13.31,2.35-26.73,4.29-39.91,7.26l-8.29,1.56c-5.44.56-13.01,1.27-18.14,3.11-.35-1.33,1.73-1.62,2.59-1.81,14.62-3.29,31.75-5.78,46.48-8.39,1.1-.19,2.51,1.3,2.77-1.2l.58.95c1.37-.37,3.57-.15,4.76-.44.88-.22.98-.42,2.96-.75,8.79-1.45,19.97-4.5,28.43-5.17.88-.07,1.54.03,2.13.74Z"/>
        <path class="cls-20" d="M187.33,35.24c2.73,1.05,4.85-.53,7.07-.88,4.29-.68,7.04-1.06,11.35-.19,17.76,3.59,36.61,8.71,54.68,12.99v.52c-12.43-2.66-24.94-5.48-37.32-8.29-2.05-.47-4.19-1.1-6.22-1.56-4.17-.94-10.68-3.48-14.77-3.52-4.29-.04-11.29,2.91-15.29,2.48-.17-.02-.35.01-.52,0,.09-.68.79-1.11,1.04-1.56Z"/>
        <path class="cls-11" d="M26.63,112.48c-.04,29.38.73,58.93,0,88.12h-.52c.02-.17-.02-.35,0-.52.53-3.8,0-8.97,0-13.21.02-24.62-.38-49.68-.52-74.39h1.04Z"/>
        <path class="cls-14" d="M110.61,411.06c1.46.49,1.85,4.24,2.49,5.54.39.8,3.58,5.51,3.21,5.86-5.59,1.37-11.37,1.05-17.1,1.56-.54-.97-1.86-.46-2.69-.37-7.33.75-21.89,1.1-27.89,4.52-.28-1.34.65-1.06,1.42-1.4,6.29-2.8,14.99-2.84,21.64-3.28,2.17-.14,4.42-.88,6.74-.49l-.25-2.08c2.45.59,4.85,1.57,7.44,1.59l1.89-4.18c-.01.06.57.38.45,1.15-.15.89-1.3,1.81-.96,3l8.29-.52-3.88-7.81-1.3-1.52c.25-.5.48-.98.52-1.56ZM100.5,422.47v.52c.34-.17.34-.35,0-.52Z"/>
        <path class="cls-18" d="M140.67,27.47l5.18,3.11c.21-.25-1.17-4.35-1.46-5.02-1.14-2.64-3.14-5.31-4.55-7.62-4.06-6.65-8.24-12.43-13.68-17.94,11.56,2.16,23.71,7.2,31.62,16.06-8.07-7.3-18.25-12.52-29.03-14.51-.31.27,1.95,2.72,2.3,3.13,4.94,5.78,11.46,14.66,14.38,21.92.47,1.16,2.44,5.3.23,4.97-.52-.08-2.49-1.99-3.26-2.46-15.69-9.46-35.85-11.09-53.32-5.8-.73.22-.92-.33-.76,1.04,7.94,2.01,15.73,6.12,22.29,10.89-.34-.03-.7.04-1.04,0-.56-.54-1.35-1.29-2.07-1.56-.15-.06-.36.05-.52,0-.38-.95-1.28-1.15-2.07-1.56-.72-.37-1.3-.39-1.56-.52l-.52-.52c-1.03-.5-1.95-.73-2.59-1.04l-1.04-.52c-.34-.17-.68-.35-1.04-.52-1.04-.49-2.02-1.86-3.63-1.56-.36-.19-.67-.34-1.04-.52-1.52-.72-2.47-1.15-4.15-1.56-.16-.04-.35.03-.52,0l-3.11-1.04c-.04-.11,0-.35,0-.52l3.63-1.56c.17-.04.35.04.52,0,4.24-.91,8.9-2.27,13.23-2.59,10.49-.78,20.93.94,30.84,4.14l1.04.52.52.52h.52c.97.93,2.41,1.54,3.63,2.07.14.06.36-.06.52,0l.52.52Z"/>
        <path class="cls-20" d="M337.65,65.31v1.04c-10.78-2.72-22.07-5.62-33.18-8.29-.16-.04-.35.04-.52,0v-.52c11.08,2.58,22.74,4.16,33.69,7.78Z"/>
        <path class="cls-20" d="M262.49,345.23c1.43.81,1.81,2.53,2.62,3.76,3.86,5.92,4.99,19.94,2.88,27.49-.43,1.55-1.91,6.01-2.54,7.34-.27.58-1.57,2.31-2.45,2.35,7.25-13.78,6.77-27.32-.52-40.95Z"/>
        <path class="cls-14" d="M133.94,23.84c-9.91-3.2-20.35-4.92-30.84-4.14-4.32.32-8.98,1.68-13.23,2.59-.43-1.23,2.04-1.47,2.78-1.63,12.59-2.66,29.54-3.04,41.29,3.18Z"/>
        <path class="cls-18" d="M378.09,382.03c.27-.31.28-1.21.63-1.43.84-.54,5.34-1.11,7.14-1.94,10.44-4.86,14.01-20.12,14.54-30.61l-2.09-15.27c5.33,14.67,2.67,39.38-13.01,46.86-2.49,1.19-4.99.95-7.21,2.38Z"/>
        <path class="cls-18" d="M260.42,47.68c4.44.95,9.41,1.75,13.48,2.59.15.03.36,0,.52,0,.4.75.81,1,1.62,1.22,9.13,2.49,18.7,4.34,27.93,6.55.16.04.36-.04.52,0l-81.38-18.66c12.38,2.81,24.89,5.63,37.32,8.29Z"/>
        <path class="cls-18" d="M345.43,287.69c0,.52,0,1.04,0,1.56.04,3.7.62,17.75-.39,20.11-.3.7-.91.83-1.16,1.15.39-1.53.94-2.74,1.06-4.39.43-5.69.1-12.88,0-18.7-.05-2.76-1.54-11.82-.02-13.72.47,4.66.45,9.31.52,14Z"/>
        <path class="cls-14" d="M303.96,57.53v.52c-9.22-2.21-18.8-4.06-27.93-6.55-.81-.22-1.22-.47-1.62-1.22,5.94-.25,22.47,5.61,29.55,7.26Z"/>
        <path class="cls-20" d="M345.43,289.25c1.57-.29,1,.79,1.04,1.79.25,6.32-.1,12.63,0,18.92-1.86-.01-1.86,1.42-3.62,2.1.36-.5.65-1.07,1.04-1.56.26-.32.86-.44,1.16-1.15,1.02-2.36.43-16.4.39-20.11Z"/>
        <path class="cls-9" d="M124.09,47.17l-24.88,4.15c6.34-1.12,14.13-2.15,20.22-3.63.54-.13.6.2,1.04-.52h3.63Z"/>
        <path class="cls-20" d="M341.28,325.01c-1.83,4.09-4.58,11.49-6.63,14.88-1.2,1.99-2.42,2.72-4.26,3.78l3.26-3.75c1.41-4.97,3.53-9.45,6.07-13.64.42-.69.45-1.51,1.55-1.27Z"/>
        <path class="cls-20" d="M332.47,370.63c-5.55,4.26-4.45,11.79-1.04,17.11-.46-.26-1.02-.31-1.45-.63.39-1.63-.91-1.94-1.1-2.37-1.27-2.94-1.97-6.44-1.04-9.57.25-.85,2.9-2.41,2.03-4.02-3.1.57-6.19.14-9.11-1.02-.7-.28-1.48-.64-1.25-1.57,5.32,1.66,6.5,1.09,11.67,1.55.56.05,1.28-.24,1.29.53Z"/>
        <path class="cls-18" d="M13.15,295.47c.86.67,4.26,2.38,4.61,3.45-2.05,7.4-2.49,18.92,5.63,22.86,1.78.87,8.04,1.55,8.36,2.53l.64,8.14c-1.83.93-4.05,1.46-5.72,2.71-2.06,1.53-2.41,4.04-4.7,4.89,1.56-3.48,6.35-6.56,9.62-8.29l-.83-7.76c-13.3.02-17.98-13.49-13.54-24.59l-4.06-3.95Z"/>
        <path class="cls-9" d="M105.42,383.07c-8.68,8.21-14.97,19.55-14.5,31.87.21,1.11,3.06,3.5,4.13,4.42l-3.11-1.56c-1.09-1.39-.3-.98-2.07-2.07.1-4.41.68-9.82,2.07-14,.08-.25.36-.63.52-1.04,1.16-3.07,3.49-6.06,4.67-8.81.06-.14-.05-.36,0-.52l1.04-1.04c1.3-.8,5.26-6.13,7.26-7.78v.52Z"/>
        <path class="cls-11" d="M5.9,287.17c-5.26-6.06-6.43-13.53-5.7-21.25.89,3.61.4,7.16,1.28,10.9.8,3.42,2.72,7.29,4.42,10.35Z"/>
        <path class="cls-20" d="M344.91,273.69c.3-.38.12-.75,1.03-.52.24,2.3,2.15,3.93,3.12,5.7l-2.59-1.56-1.04,10.37c-.06-4.68-.05-9.33-.52-14Z"/>
        <path class="cls-18" d="M355.8,388.77c-10.07,5.98-14.8,4.4-24.36-1.04-3.41-5.32-4.51-12.85,1.04-17.11-11.3,17.32,9.65,25.68,23.33,18.14Z"/>
        <path class="cls-20" d="M352.17,301.17c-.87,2.78-2.58,5.17-2.98,8.17-.49,3.67,1,5.1-1.69,7.9,2-1.8.55-3.75.58-5.5.05-2.84,1.12-8.13,3.02-10.23.45-.5,1.03-.29,1.07-.34Z"/>
        <path class="cls-20" d="M329.36,344.19c-1.39.63-1.82.64-3.11,1.04-3.87,1.19-8.11,1.58-11.4,4.15-.13-.91,2.02-2.51,2.75-2.91.98-.53,2.19-.33,3.26-.62,2.6-.71,5.87-2.22,8.51-1.66Z"/>
        <path class="cls-11" d="M58.77,367v.52c-7,2.57-13.05,3.03-20.22.52l9.6,1.07c3.52-.61,7.26-.86,10.62-2.11Z"/>
        <path class="cls-18" d="M138.08,348.86c2.55,6.66-.17,15.23-4.65,20.49-4.82,5.66-5.16,3.93-11.42,5.68-6.39,1.79-11.16,4.56-16.58,8.04v-.52c4.64-3.81,11.02-6.73,16.78-8.36,5.51-1.56,6.41-.04,10.71-4.84,5.07-5.68,5.4-13.2,5.17-20.49Z"/>
        <path class="cls-14" d="M26.63,215.64c-.03,4.41,0,8.83.03,13.24.04.44-1.44,1.73-1.59,1.79,2.72-6.61-.57-14.06,1.56-20.73.01,1.9.01,3.81,0,5.7Z"/>
        <path class="cls-20" d="M315.36,420.39c.06.06.59-.2.92.13.15.15,1.19,2.81,1.48,3.02,1.52,1.1,5.63,1.55,7.61,2.17.84.26,1.66.23,1.4,1.43-2.89-1.32-6.66-1.98-9.85-2.07l-1.56-4.67Z"/>
        <path class="cls-18" d="M95.06,354.56c-5.52,4.28-8.64,3.27-13.86,5.58-3.31,1.47-6,5.1-10.79,5.79-5.21.75-5.93-.51-11.63,1.59v-.52c1.16-.43,2.27-1.85,3.38-2.07,1.9-.37,3.75.59,5.66.53,8.24-.25,13.22-7.52,21.43-8.16l5.81-2.74Z"/>
        <path class="cls-14" d="M273.89,50.28c-4.07-.84-9.04-1.64-13.48-2.59v-.52c3.61.85,7.47,1.43,11.13,2.08.91.16,1.81.07,2.34,1.03Z"/>
        <path class="cls-20" d="M312.25,353c-.76,4.42-.34,6.81,1.56,10.89-.44-.5-1.31-.68-1.78-1.59-.93-1.8-.64-4.59-1.88-6.49l2.1-2.81Z"/>
        <path class="cls-20" d="M260.42,390.33l4.06,1.9c2.59.61,5.37.78,7.35,2.76-4.11-1.14-8.27-2.23-12.44-3.11-.04-.12,0-.35,0-.52.33-.34.75-.65,1.04-1.04Z"/>
        <path class="cls-14" d="M89.87,415.73c-.32-.2-.83-.26-.87-.74.04-3.85.65-6.9,1.61-10.61.3-1.16-.61-1.34,1.33-2.64-1.4,4.17-1.97,9.58-2.07,14Z"/>
        <path class="cls-18" d="M357.35,387.74c2.17-.94,2.42.02,4.38.02,6.47,0,10.82-.97,15.83-5.21-5.46,5.7-12.67,7.36-20.22,5.18Z"/>
        <path class="cls-20" d="M272.34,394.99c2.98.84,5.48,1.35,8.31,2.86,1.04.56,1.27.21,1.02,1.81-3.05-1.65-6.32-2.93-9.33-4.67Z"/>
        <path class="cls-20" d="M291,406.4c1.85.02,3.13,2.34,4.56,3.06,2.09,1.06,6.27,2.36,8.66,3.16.9.3,1.88-.64.78,1.03-5.15-2.29-8.35-2.87-13.48-6.22-.2-.3-.3-.8-.52-1.04Z"/>
        <path class="cls-18" d="M110.61,411.06c-.04.57-.27,1.05-.52,1.56-.17.34-.34.71-.52,1.04-.64,1.21-1.09,1.48-1.56,3.11-.13.45-.35.71-.52,1.56l-1.89,4.18c-2.59-.02-4.98-1.01-7.44-1.59-.31-.07-.74.08-1.04,0-.33-.65-1.1-.72-1.56-1.04l7.58,1.49,2.78.06c.26-3.09,2.14-6.78,3.57-9.63.25-.49-.07-1.13,1.09-.74Z"/>
        <path class="cls-11" d="M26.63,215.64c.01-1.9.01-3.81,0-5.7,0-.35,0-.69,0-1.04-.02-2.37.26-5-.52-7.26.02-.17-.02-.35,0-.52h.52c.5,3.64,1.04,8.48.95,12.19-.02.86-.3,1.73-.95,2.32Z"/>
        <path class="cls-18" d="M326.77,427.13c.15.07.4-.07.52,0l.52.52c.16.16.39.75.52,1.04l-.52,1.04c-.16.09-.91.47-1.04.52-5.65,2.07-16.22,3.74-22.29,4.15-.96-1.48-.44-.92.78-1.03,7.44-.7,14.98-1.58,21.97-4.21l.06-1.49-9.51-1.66-.86-.94c3.19.09,6.96.75,9.85,2.07Z"/>
        <path class="cls-18" d="M363.57,261.25c7.38,9.16,14.32,19.89,16.65,31.55,1.75.36,3.49.87,5.12,1.62-.32,1.06-1.53-.04-2.09-.24-.93-.33-2.82-.7-3.34-1.32-1.6-4.68-3.16-9.92-5.36-14.34-2.94-5.9-7.22-11.86-10.98-17.27Z"/>
        <path class="cls-11" d="M391.05,298.58c6.56,6.7,7.65,16.31,2.59,24.36-.03-.09-.52-.19-.43-.66,4.15-5.96,3.54-13.11.52-19.39l-2.68-4.32Z"/>
        <path class="cls-18" d="M271.82,394.99c.16.04.36-.04.52,0,3.01,1.74,6.28,3.01,9.33,4.67.68.37,1.54.72,2.07,1.04l.52.52c.4.24.85.39,1.04.52.48,1.09,1.54,1.65,2.59,2.07.19.15.34.36.52.52.83.72,1.45,1.04,2.07,1.56.17.14.37.35.52.52.22.24.32.74.52,1.04-9.77-6.38-12.98-9.71-24.88-13.22-1.76-.52-6.76-.77-7.25-2.34,4.17.88,8.33,1.97,12.44,3.11Z"/>
        <path class="cls-18" d="M1.23,262.81h-.52c1-4.89,3.69-10.84,6.22-15.03.74-.23,1.03-.8,1.04-1.56.14-.18.36-.34.52-.52.52-.57,1.67-.76,1.56-2.07.43-.46,1.1-1.12,1.56-1.56l.52-.52c.25-.21.74-.31,1.04-.52-5.44,7.02-9.67,12.95-11.92,21.77Z"/>
        <path class="cls-14" d="M26.63,208.9c-.62-1.26-1.02-3.53-1.08-4.92s.51-1.97.56-2.33c.78,2.26.49,4.88.52,7.26Z"/>
        <path class="cls-18" d="M188.88,32.65l-1.04,1.04c-.28.53-.33,1.22-.52,1.56-.25.45-.94.88-1.04,1.56-1.02-.21-.38-.85-.1-1.4,3.73-7.5,8.58-14.55,11.51-22.44-8.86,2.05-16.82,8.96-22.81,15.55,1.14-1.57,3.03-3.93,4.38-5.21,5.62-5.3,12.53-9.74,19.98-11.9-2.99,6.76-6.69,13.19-10.07,19.75-.3.58-.18,1.29-.29,1.5Z"/>
        <path class="cls-20" d="M306.03,414.17c.55-.94,2.9.55,3.49.89.96.56,2.37,1.97,3.25,2.73-2.33-.7-4.63-2.67-6.74-3.63Z"/>
        <path class="cls-14" d="M116.83,40.43c1.5.85,3.46,2.19,4.7,3.35.43.4,2.67,2.91,2.56,3.39h-3.63c.09-.14-.15-.69.03-.99l2.04-.31c-1.54-2.15-3.72-3.73-5.7-5.45Z"/>
        <path class="cls-20" d="M354.24,299.09c-.11-2.58,2.46-1.11,2.61-4.47.04-1-1.34-.41-.69-1.64l-.88-.36.52-.27c4.12,3.43,1.21,4.46-1.56,6.74Z"/>
        <path class="cls-14" d="M97.13,391.88c-1.18,2.76-3.5,5.74-4.67,8.81-.7-.35.29-2.35.5-2.87.77-1.89,2.05-5.35,4.17-5.94Z"/>
        <path class="cls-14" d="M95.06,419.36c.18.15.33.38.52.52.45.32,1.22.39,1.56,1.04-.39-.1-1,.03-1.65-.15-2.35-.65-2.32-1.41-3.53-2.96l3.11,1.56Z"/>
        <path class="cls-14" d="M16.78,236.89c-.51-2.08,2.14-2.34,3.63-3.11-1.25,1.02-2.04,2-3.63,3.11Z"/>
        <path class="cls-13" d="M339.73,65.83c.81.02,2.15.03,2.8.47.55.38.22.95.31,1.08-.99-.47-2.15-.33-3.11-.52v-1.04Z"/>
        <path class="cls-14" d="M139.64,26.95c-1.22-.53-2.66-1.15-3.63-2.07,1.49-.09,3.56.22,3.63,2.07Z"/>
        <path class="cls-14" d="M98.17,29.02l-.25.51c-1.17-.5-2.34-1.51-3.38-2.06,1.61-.3,2.59,1.06,3.63,1.56Z"/>
        <path class="cls-14" d="M89.36,22.28l-3.63,1.56c0-.3-.14-.77.06-.96,1.11-.48,2.49-.36,3.57-.6Z"/>
        <path class="cls-18" d="M46.85,60.64c-5.71,2.18-13.22,1.6-18.66,4.15-.15.07-.4-.07-.52,0v-.52c.17-.1.86-.46,1.04-.52,5.14-1.84,12.7-2.55,18.14-3.11Z"/>
        <path class="cls-20" d="M354.24,287.69c-2.22-.4-1.6-1.73-2.07-3.11,1.04.57,1.69,2.05,2.07,3.11Z"/>
        <path class="cls-14" d="M93.5,26.95l-.24.46-3.9-2.01c1.68.4,2.63.84,4.15,1.56Z"/>
        <path class="cls-14" d="M88.84,25.39c-1.11-.23-2.49.58-3.11-1.04l3.11,1.04Z"/>
        <path class="cls-18" d="M99.2,424.02c-7.85.7-16.55,1.22-24.37,2.85-1.86.39-8.95,1.33-4.66,3.89-.44-.19-.99-.24-1.56-.52-.14-.07-.39.07-.52,0v-2.07c.12-.08.39.08.52,0,5.99-3.42,20.56-3.77,27.89-4.52.83-.09,2.15-.6,2.69.37Z"/>
        <path class="cls-11" d="M1.23,262.81c-.18.69.13,1.81,0,2.6H.2c.09-.76.35-1.79.52-2.6h.52Z"/>
        <path class="cls-20" d="M288.41,404.32h2.07s0,1.56,0,1.56c-.62-.51-1.25-.84-2.07-1.56Z"/>
        <path class="cls-20" d="M349.06,279.4c1.13,1.4,2.49,2.97,3.11,4.67-.65-.75-1.99-1.69-2.43-2.49-.5-.89-.52-1.88-.68-2.18Z"/>
        <path class="cls-14" d="M20.93,233.26c.84-2.48,1.98-1.75,3.63-2.59-.8,1.31-2.46,1.64-3.63,2.59Z"/>
        <path class="cls-20" d="M254.72,335.38c.4.12,1.07-.12,1.54.01v1.54c-.49-.46-1.3-.68-1.54-1.56Z"/>
        <path class="cls-1" d="M357.35,252.96c.09.23-.06.72,0,1.04-.92-.97-2.08-2.6-2.59-3.11h.52l2.07,2.07Z"/>
        <path class="cls-18" d="M261.97,344.19c.15.26.33.68.52,1.04,7.29,13.64,7.77,27.18.52,40.95-.36.69-.44,1.43-.52,1.56l-1.04,1.04c-.34.5-.69,1.08-1.04,1.56-.28.39-.7.69-1.04,1.04.07-1.36,4.31-7.26,5.21-9.56,4.06-10.38,3.65-21.93-.55-32.17-.68-1.66-2.83-4.77-3.11-5.96l1.04.52Z"/>
        <path class="cls-14" d="M106.98,33.69c-.96-.33-1.66.59-2.07-1.56.79.41,1.69.61,2.07,1.56Z"/>
        <path class="cls-20" d="M339.21,65.83c.17-.02.35,0,.52,0v1.04c-.61-.12-1.11-.42-1.56-.52.16-.51.59-.47,1.04-.52Z"/>
        <path class="cls-20" d="M312.25,352.49c.08-.42-.2-1.01.1-1.46.43-.31,1.01-.35,1.46-.62l-1.56,2.07Z"/>
        <path class="cls-13" d="M339.21,65.83c-.44.05-.87.01-1.04.52-.17-.04-.36.04-.52,0v-1.04c.44.14,1.21-.19,1.56.52Z"/>
        <path class="cls-14" d="M68.1,430.24c-.51-.29-1.19-.53-1.03-1.29.25-.41.66-.55,1.03-.78v2.07Z"/>
        <path class="cls-20" d="M261.97,344.19l-1.04-.52c-.07-.29.05-.71,0-1.04.28.12.6.26.77.53.24.38.16.85.27,1.03Z"/>
        <path class="cls-20" d="M346.99,317.76c-1.48,1.46-2.8,3.09-4.15,4.15-.1.08-.17.85-.52,1.04-.02-.13-.78-.45-.48-.97.25-.23.92.01,1-.07,1.11-1.17,1.98-3.98,4.15-4.15Z"/>
        <path class="cls-20" d="M287.89,403.81c-1.05-.42-2.12-.98-2.59-2.07,1.27.84,1.59,1.26,2.59,2.07Z"/>
        <path class="cls-14" d="M98.17,390.33l-1.04,1.04c.09-.28-.12-.91,0-1.04.13-.13.85.12,1.04,0Z"/>
        <path class="cls-1" d="M345.95,175.72c.15,22.1-.33,44.32.27,66.37.26.58.99.71,1.29,1.02.35.37.69.69,1.04,1.04l1.56,1.56c.35.37.7.69,1.04,1.04l1.56,1.56c.55.64,1.03,1.4,1.56,2.07-2.81-2.79-6.2-5.93-9.36-8.12l-.2-21.17c1.04-13.02-.55-26.32.79-39.44l-1.08-.99c2.06-1.45.54-3.38.52-4.93h1.04Z"/>
        <path class="cls-20" d="M353.72,299.61l-1.04,1.04c.08-.11-.17-.72.08-.96s.86,0,.96-.08Z"/>
        <path class="cls-20" d="M315.36,365.45c-.47-.45-.68-.68-1.04-1.04l1.04,1.04Z"/>
        <path class="cls-20" d="M355.8,291.84c-.01-.08-.89-.79-.52-1.56l.52,1.56Z"/>
        <path class="cls-20" d="M318.47,368.04l-.51.52c-.07-.31.09-.92,0-1.04l.52.52Z"/>
        <path class="cls-14" d="M6.93,247.78c.38-.62.58-.96,1.04-1.56,0,.76-.29,1.33-1.04,1.56Z"/>
        <polygon class="cls-14" points="135.49 24.88 134.97 24.36 135.48 23.84 135.49 24.88"/>
        <path class="cls-20" d="M355.28,289.76h-1.04c-.13-.4.51-.45.52-.52l.52.52Z"/>
        <path class="cls-14" d="M100.24,30.06c-.36-.17-.7-.35-1.04-.52l1.04.52Z"/>
        <path class="cls-14" d="M8.49,245.7c.41-.78.95-1.43,1.56-2.07.12,1.31-1.03,1.51-1.56,2.07Z"/>
        <path class="cls-20" d="M260.42,342.12l-.52-1.04c.23.31.62.47.52,1.04Z"/>
        <path class="cls-14" d="M109.57,35.24c-1.08-.14-1.63-.56-2.07-1.56.72.27,1.51,1.01,2.07,1.56Z"/>
        <path class="cls-14" d="M16.27,237.41c-.61.43-1.09.98-1.56,1.56-.14-1.57,1.09-1.22,1.56-1.56Z"/>
        <path class="cls-20" d="M327.81,427.65l-.52-.52c.25.15.35.35.52.52Z"/>
        <path class="cls-20" d="M327.81,429.72l.52-1.04c.03.08.52.11.51.25-.24.42-.65.56-1.03.78Z"/>
        <path class="cls-14" d="M11.6,242.07c.18-.17.33-.36.52-.52l-.52.52Z"/>
        <path class="cls-20" d="M341.28,324.49c.13-.28.48-.43.52-.52l-.52.52Z"/>
        <path class="cls-14" d="M116.31,39.91c-.62-.54-1.17-1.24-1.56-1.56l1.56,1.56Z"/>
        <path class="cls-14" d="M112.68,37.32c-.19-.15-.34-.38-.52-.52l.52.52Z"/>
        <path class="cls-20" d="M284.26,401.21l-.52-.52c.25.15.39.44.52.52Z"/>
        <path class="cls-18" d="M321.59,316.72v.52c-12.08,2.73-24.24,5.23-36.3,8.02l-32.64,7.54,1.55,2.07v.52c-.84-.31-1.46-1.56-2.59-1.57l.32-1.06c22.35-5.59,44.94-10.9,67.47-15.91.78-.17,1.62,0,2.19-.12Z"/>
        <path class="cls-20" d="M257.31,337.97l-.52-.52c.17.18.36.33.52.52Z"/>
        <path class="cls-20" d="M258.34,339.53l-.52-.52c.16.18.36.33.52.52Z"/>
        <path class="cls-20" d="M187.85,33.69l1.04-1.04c-.36.69-1,.97-1.04,1.04Z"/>
        <path class="cls-20" d="M261.45,388.77l1.04-1.04c-.4.69-.92.87-1.04,1.04Z"/>
        <path class="cls-14" d="M103.35,31.62c-.33-.16-.47-.5-.52-.52l.52.52Z"/>
        <path class="cls-13" d="M350.1,245.7l-1.56-1.56c.52.53,1.03,1,1.56,1.56Z"/>
        <path class="cls-14" d="M140.67,27.47l-.52-.52c.22.08.39.32.52.52Z"/>
        <path class="cls-14" d="M26.63,201.12h-.52c.02-.17-.02-.35,0-.52h.52v.52Z"/>
        <path class="cls-13" d="M352.69,248.29l-1.56-1.56c.51.53.96.87,1.56,1.56Z"/>
        <path class="cls-18" d="M326.25,345.23c.31,1.5-.74.95-1.64,1.18-4.03,1.04-6.04,1.4-9.76,3.48v-.52c3.29-2.56,7.53-2.96,11.4-4.15Z"/>
        <path class="cls-20" d="M316.92,367c-.17-.17-.34-.36-.52-.52l.52.52Z"/>
        <path class="cls-13" d="M357.35,252.96l-2.07-2.07c.8.45,1.73,1.21,2.07,2.07Z"/>
        <path class="cls-13" d="M360.46,256.59l-1.04-1.04c.34.35.65.6,1.04,1.04Z"/>
        <path class="cls-22" d="M316.92,105.74c.86,2.72,1.19,6.71,3.63,8.81.06.15-.05.36,0,.52,1.58,4.49,4.12,7.53,7.26,10.89.17.18.35.34.52.52,1.7,1.74,3.41,3.53,5.18,5.18v51.32c-1.96,1.05-3.76,2.43-5.94,3.13-2.31.74-4.56,1.26-7.02,1.01l5.19-4.39c2.29-3.01,5.21-6.58,4.4-10.64-3.42,3.33-11.45,8.44-16.21,8.69-4.07.22-9.77-2.52-15.93-1.95-14.59,1.35-30.22,21.36-23.85,35.24,3.08,6.71,10.12,3.6,9.02,11.62-.73,5.33-5.3,7.87-8.71,10.98-.58.52-1.3.76-1.08,1.76,5.25.87,13.05-2.5,15.55-7.25.42,1.34,1.06-1.01,1.12-1.21,3.56-11.05-2.77-18.07-13.04-20.57.73-1.52,1.53-3.07,2.6-4.39,7.05-8.65,19.7-16.7,31.09-11.93,1.45.61,2.34,1.97,2.74,2.17.15.08,3.06.99,3.23.99.33,0,.91-.73,1.57-.81,3.68-.45,6.98-1.05,10.19-3.18,1.41-.94,2.3-3.41,4.05-3.07l-.46-.98,1.49-.57.03,114.27c-2.39.63-4.89.99-7.29,1.6-.87.22-1.83-.06-1.54,1.28-31.94,7.3-63.88,14.81-95.79,22.14-24.39,5.6-48.79,11.23-73.2,16.74v-1.56c.86-.54.52-1.97.53-2.84.5-47.87-.38-95.72,0-143.59-.73-.84-.51.57-.52,1.02-.05,1.64.02,3.3,0,4.94l-.52-87.6,145.4-27.48c-3.55,11.88-12.18,21.48-21.51,29.3,5.59-.01,11.97-5.39,15.89-9.26,6.04-5.96,10.35-13.34,12.73-21.48l4.82-1.13c1.09,7.33,1.72,14.35,3.89,21.5.11.36.5.24.51.27ZM324.17,138.92c.21-14.26-7.82-28.73-24.02-21.69s-26.28,29.73-26.76,46.06l7.66-12.81c8.09-9.82,24.74-32.83,38.23-18.83l4.9,7.27ZM230.87,155.51c-8.58-21.45-33.73-39.43-55.19-22.28-5.24,4.19-12.88,14.09-13.25,20.97-.03.56-.28,1.45.53,1.31,5.19-7.3,14.21-14.51,23.22-16.44,16.04-3.44,33.24,5.88,44.69,16.44ZM225.69,168.98c-15.86-18.42-42.12-18.27-50.81,6.22l-4.14-2.85-6.21-6.48c.04,5.72,2.02,11.4,5.72,15.79,1.19,1.42,3.15,2.09,3.06,3.56-.03.44-.46,2.42-.79,2.46-2.44-.47-4.98-.77-7.37-1.44-.79-.22-4.77-2.72-4.24-.94,1.47,4.93,6.9,9.53,11.85,10.7.75,18.4,10.87,29.87,29.1,32.07,3.2.39,5.93.68,9.33.52,5.83-.28,13.35-1.65,18.14-5.18s6.78-10.26,7.78-16.07c.65-3.8.52-7.25.52-11.15,0-.39.22-2.69-.52-1.29-.81-8.65-5.77-19.37-11.4-25.92ZM215.32,242.59c1.01-1.55.36-.8-.7-1.1-5.65-1.61-14.17-2.53-19.63-.31-2.72,1.1-5.01,2.38-6.1,5.04-.86,2.11-1.62,4.43-1.55,6.74.99.08,1.72-.65,2.59-1.03l7.25-2.08c1.52,5.45,3.28,10.91,5.32,16.2,1.35,3.5,2.87,6.54,4.54,9.72,5.51,10.53,11.55,19.79,21.25,26.96,7.38,5.45,18.03,7.75,25.92,2.07,3.81-2.74,6.62-6.05,9.33-9.85,2.72-3.81,3.36-5.33,4.89-9.35,2.92-7.65,5.3-15.47,7.12-23.47,3.05-1.88,5.66-2.82,8.72-5.02,5.53-3.98,10.88-8.55,12.44-15.55-.11-1-.88-.38-1.4-.11-1.54.8-3.27,2.38-4.99,3.31-20.55,11.04-44.5,11.06-66.85,6.11-.58-.13-.03-2.01-1.92.02-4.83-1.36-9.41-3.2-13.99-5.19-.13-1.37-.02-.84.77-1.02,1.89-.44,6.85-.73,8.05-1.29.23-.11.65-.66.51-.78-.49-.08-1.13.1-1.55,0Z"/>
        <path class="cls-23" d="M39.59,77.75l103.37,34.67c.79,6.05.73,12.12.83,18.2-1.02.57-.7,1.11-.69,1.96.15,11.78-.29,23.95.17,35.64.04,1-.53,2.08,1.04,1.79v40.43c0,.17,0,.35,0,.52-.4.07-1.04-.23-1.04.26l1.04.26v2.07c-.86,2.1-.88,6.08,0,8.29v111.97c-.02.94.54,4.52-.76,4.14l-38.79-21.21c-4.83-15.46-17.34-28.51-34.5-28.1-3.37-13.87-19.14-17.85-31.17-12.37l-.02-25.05,4.17-1.4c-.05-.25-.53-.47-.53-.51.18-1.38,16.73-5.91,19.17-6.49,11.66-2.76,26.54-1.44,24.88-18.13-2.06-20.74-36.09-5.67-46.65-1.82-.99-.49-1-.72-1.07-1.77-.64-9.21.41-19.24.04-28.58-.04-1,.53-2.08-1.04-1.79-.02-12.78-.08-25.58,0-38.36.01-2.07-.01-4.15,0-6.22,0-.07.54-.59.54-1.26.14-21.93-.11-43.92-.06-65.88l1.07-1.29Z"/>
        <path class="cls-2" d="M311.22,72.56l-159.33,29.9-93.52-31.31-1.67-1.17,71.02-11.92c-1.57,3.69-4.36,7.36-7.53,9.83-1.78,1.39-3.61,1.92-5.28,3-.51.33-.92-.06-.67,1.16,17.55,3.25,39.26-.71,50.54-15.55,1.49.09-5.14,13.53-6.48,14.26,2.72.27,6.05-1.54,8.45-2.96,7.3-4.31,13.01-11.35,15.48-19.51,6.1-.24,13.4-2.73,19.35-2.72,2.63,0,6.48,1.17,9.18,1.75,24.51,5.27,49.73,11.62,74.13,17.62,6.86,1.69,13.87,3.23,20.62,5.29,1.76.54,4.51,1.03,5.7,2.33Z"/>
        <path class="cls-6" d="M83.13,302.72c1.64,1.14,4.75,4.17,6.22,5.7.88,2.18,2.65,3.82,3.66,5.93,4,8.38,4.55,20.43.16,28.75-.61,1.15-1.55,1.49-1.75,2.64-.49.54-1.5,1.52-2.07,2.07-2.75,1.83-1.03-2.01-1.02-3.35.06-4.97-.46-9.78-3.65-13.76-.16-.2-.82-.3-1.04-.52-.12-.13-.06-1.98-1.55-1.55-.32.74.52,1.54.52,1.81v11.4c0,.73-1.41,5.52-1.81,6.48-2.26,5.46-7.16,9.62-13.22,9.85-.04-.13,0-.34,0-.52,2.83-4.14,3.56-10.81,1.75-15.49-.28-.72-1.93-3.43-2.54-3.68-1.06-.44-.73.71-.77,1.28-.45,6.82-1.62,11.64-6.22,16.86-.15.17-.35.35-.52.52-6.61,5.16-14.36,4.94-21.77,1.56-1.4-1.06-4-3.38-5.18-4.67-2.31-4.39-3.56-9.75.52-13.48.83-.4,2.96-1.22,3.79-.97,1.01.3,1.08,1.5,1.56,1.86s1.01.42,1.39.67c2.26,2.85,6.21,4.51,9.85,4.14.29-.95-.47-.92-.52-1.03-.06-.16.07-.4,0-.52-.78-1.35-2.11-2.45-3.11-3.63-.16-.19-.36-.33-.52-.52l-2.07-2.59c-1.43-2.39-2.24-4.63-3.11-7.26-1.14-8.22-1.17-16.54,4.15-23.33.16-.18.35-.35.52-.52.31-.31.75-.78,1.04-1.04,9.89-8.96,26.08-10.89,37.32-3.11Z"/>
        <path class="cls-6" d="M384.31,325.01c.51.87.21,2.68,2.07,2.59.06.15-.06.37,0,.52,5.39,12.89,7.52,27.04,0,39.4-.84.15-.49-.7-.52-1.27-.17-2.68,1.16-6.2-1.55-8.06-.02-.08-.54-.26-.52-1.04l.52-.51c-.32-.08-.85.09-1.04,0-.31-.16-.36-.21-.52-.52-.1-.19.08-.72,0-1.04l-1.58.23-.39.65c-.63,4.17-1.47,9.1-2.69,13.12-.16.54-.33,1.02-.52,1.56-2.15.29-2.46,3.57-3.63,5.18-.61.66-.82.93-1.56,1.56-1.48-.19-2.45.88-3.11,2.07-.36.19-.64.35-1.04.52-2.2-1-1.72.56-3.63.52-.16-.15,1.32-3.51,1.55-4.14,2.31-6.28,6.01-13.97,1.81-20.21-.66,0-2.96,9.03-3.54,10.45-3.76,9.26-13.91,19.68-24.71,15.98-2.77-2.27-2.66-3.76-1.04-6.74,3.41-3.3,7.31-5.97,9.83-10.13.71-1.17,3.13-6.76,3.13-7.75v-8.03h-1.03s-2.6,3.63-2.6,3.63c-.18.17-.34.36-.52.52-6.68,5.44-16.51,10.87-24.88,5.7-.9-1.32-1.64-2.87-.29-4.18,1.27-1.22,8.94-2.96,11.63-4.43,14.64-8.01,8.09-25.97,27.66-32.9.51-.18.21-.92,1.13-1.04,7.79-1.02,17.33.6,21.55,7.82Z"/>
        <path class="cls-4" d="M35.96,290.28c7.2-5.79,21.94-10.12,25.4,1.55-5.62.48-9.74,2.8-14,6.22-3.88,3.12-6.48,5.73-9.23,10.21-1.04,1.69-2.48,5.89-3.73,6.9-13.8-1-5.96-15.74-1.04-22.29.55-.61,2-2.07,2.59-2.59Z"/>
        <path class="cls-4" d="M386.9,309.98c.77,2.42.59,4.32,0,6.74-.58.65-.36,1.5-1.56.79-2.4-1.42-4.28-3.18-7.07-4.34-6.02-2.5-13.52-3.11-19.62-.59-.92.02.43-3.46.68-3.99,4.63-9.86,24.13-9.38,27.56,1.39Z"/>
        <path class="cls-21" d="M334.03,81.38l.51,32.66c-1.75-1.89-3.18-5.02-4.23-7.43-3.25-7.45-5.39-15.74-5.54-23.86l.78-.77,8.48-.6Z"/>
        <path class="cls-17" d="M333.51,131.66c.08.07.75-.17.95.07l.13.67c-.16,4.51.08,9.03-.02,13.53-.23,11.08-.04,22.07,0,33.13.16,41.25-.51,82.43-.54,123.66-2.71.83-6.42,1.41-9.33,2.07-.29-1.34.67-1.06,1.54-1.28,2.4-.61,4.9-.98,7.29-1.6l-.03-114.27-1.49.57.46.98c-1.76-.34-2.64,2.13-4.05,3.07-3.21,2.14-6.51,2.74-10.19,3.18-.66.08-1.24.81-1.57.81-.17,0-3.08-.92-3.23-.99-.4-.21-1.29-1.57-2.74-2.17-11.39-4.77-24.04,3.28-31.09,11.93-1.07,1.31-1.87,2.87-2.6,4.39,10.28,2.49,16.6,9.52,13.04,20.57-.06.2-.71,2.55-1.12,1.21.67-1.28,1.59-5.54,1.59-7,.01-7.98-7.69-13.61-15.07-14.26,6.32-9.5,18.2-20.92,30.61-18.94,5.56.89,7.09,4.65,13.58,3.78s12.77-4.85,13.87-11.79v-51.32Z"/>
        <path class="cls-16" d="M155.71,201.64c-.38,40.41,0,80.89,0,121.3-1.04-.27-.81-1.27-.84-2.08-.04-1.38-.2-3.16-.19-4.4.41-66.32-.23-133.97-.04-201.17l.55-1.25.52,87.6Z"/>
        <path class="cls-18" d="M300.33,434.39c-1.83.55-4.56.89-6.48,1.03-13.53,1.02-26.91,1.18-40.45,1.54-53.97,1.43-108.82,2.6-162.49-2.57v-.52c50.68,4.71,101.81,3.81,152.64,2.57,19-.46,38.04-.87,56.78-2.05Z"/>
        <path class="cls-10" d="M328.32,126.48c2.86.76,3.66,4.12,6.66,4.75l.11,171.2c-.02.61-.74.21-1.06.3.03-41.23.71-82.41.54-123.66-.04-11.06-.24-22.05,0-33.13.09-4.51-.14-9.02.02-13.53l-.13-.67c-.2-.24-.87,0-.95-.07-1.77-1.66-3.48-3.45-5.18-5.18Z"/>
        <path class="cls-3" d="M155.71,342.12v-19.18c0-40.41-.38-80.89,0-121.3.02-1.64-.05-3.29,0-4.94.01-.45-.21-1.86.52-1.02-.37,47.87.51,95.72,0,143.59,0,.88.33,2.31-.53,2.84Z"/>
        <path class="cls-12" d="M144.3,223.93v11.92c-.45,32.63.6,65.34,0,97.97v-110.93,1.04Z"/>
        <path class="cls-4" d="M256.27,421.95l-10.92.29-.23-7.56c.67-.87.56-.24,1.05,0,2.13,1.05,5.24,2.88,7.16,4.26.47.34,3.67,2.4,2.95,3.01Z"/>
        <path class="cls-14" d="M222.58,421.43l-54.75-.49c-.63.21-.99-.43-1.24-.55h54.43c0-.69,0-1.38,0-2.07l1.56,3.11Z"/>
        <path class="cls-1" d="M28.19,64.79c-1.17.66-1.47,1.55-1.57,2.86-.48,6.15.05,13.62.02,19.95l-.51.26.51.26c-.04,8.11,0,16.25,0,24.36h-1.04c-.08-12.94-1.37-30.95,0-43.29.17-1.56.67-3.56,2.08-4.4.12-.07.37.07.52,0Z"/>
        <path class="cls-11" d="M345.43,166.39v5.7c.14,1.25.51,2.34.52,3.63h-1.04c-.39-23.86-.3-47.93,0-71.8.01-.88-.33-2.3.53-2.84.22,21.75-.12,43.58,0,65.31Z"/>
        <path class="cls-20" d="M26.63,259.18c1.57-.29,1,.79,1.04,1.79.19,4.93.09,9.88.52,14.8-3.57-3.44-5.42-13.1-1.56-16.59Z"/>
        <path class="cls-18" d="M166.59,420.39c.25.12.61.76,1.24.55l54.75.49c-.02.78-.74.48-1.29.53-6.16.61-12.55-.46-18.65-.55-8.11-.12-16.29-.08-24.41,0-2.55.03-9.64,1.07-11.42.05-.48-.28-.94-1.09-1.26-1.59h.52c.18.13.34.43.52.52Z"/>
        <path class="cls-16" d="M143.78,140.47c1.57-.29,1,.79,1.04,1.79.75,18.86.21,39.12,0,58.09,0,.88.33,2.31-.53,2.84v-46.13c-.05-4.14-.44-8.27-.52-12.44l.51-.26-.51-.26c-.02-1.21.02-2.42,0-3.63Z"/>
        <path class="cls-12" d="M39.59,77.75l-1.07,1.29c-.06,21.96.19,43.95.06,65.88,0,.67-.54,1.19-.54,1.26v-67.15s1.56-1.27,1.56-1.27Z"/>
        <path class="cls-14" d="M391.56,340.56c.39,5.72.97,11.39,0,17.11-.67,2.3-1.72,5.14-2.84,7.26-.48.91-1.16,2.78-2.34,2.59-.39.64-.19,1.72-1.56,2.07.96-4.22.54-7.33-.52-11.4,2.71,1.87,1.38,5.39,1.55,8.06.03.56-.32,1.42.52,1.27,7.52-12.36,5.39-26.51,0-39.4,2.99,3.38,4.09,8.18,5.18,12.44Z"/>
        <path class="cls-16" d="M38.04,190.75c.01,7.77.15,15.57,0,23.33-1.88-17.82-.72-40.47-.53-58.84,0-.88-.33-2.3.53-2.84-.08,12.78-.02,25.58,0,38.36Z"/>
        <path class="cls-12" d="M38.04,190.75c1.57-.29,1,.79,1.04,1.79.37,9.35-.67,19.38-.04,28.58.07,1.05.09,1.27,1.07,1.77-.68.25-1.21.72-2.07.52.06-1.02-.09-2.09,0-3.11l.52-1.04c.03-.52.05-4.44,0-4.67l-.52-.52c.15-7.76.01-15.55,0-23.33Z"/>
        <path class="cls-12" d="M143.78,140.47c.02,1.21-.02,2.42,0,3.63,0,.17,0,.35,0,.52.07,4.17.47,8.3.52,12.44,0,.1-.35.24-.35.41,0,.3.12.45.35.62v11.92c-1.57.29-1-.79-1.04-1.79-.46-11.69-.03-23.86-.17-35.64-.01-.86-.33-1.4.69-1.96.05,3.27-.06,6.57,0,9.85Z"/>
        <path class="cls-9" d="M83.13,302.72c-11.25-7.78-27.43-5.85-37.32,3.11h-.52c1.66-2.22,5.87-5.21,8.46-6.31,9.05-3.83,21.74-3.47,29.38,3.2Z"/>
        <path class="cls-18" d="M366.16,376.33l-3.11,4.15c-.23-.38-.63.24-.11-.87.7-1.48,2.16-2.88,2.9-4.38.47-.96,2.91-7.45,2.91-7.97v-8.29c0-.08-.51-1.51-1.03-1.29-1.22,10.92-13.12,28.53-25.54,26.31-1.58-.28-1.54-.68-2.46-1.43,10.8,3.7,20.96-6.72,24.71-15.98.58-1.42,2.87-10.45,3.54-10.45,4.2,6.23.49,13.92-1.81,20.21Z"/>
        <path class="cls-18" d="M89.36,308.42c8.97,9.3,11.11,27.36,2.07,37.32.19-1.15,1.14-1.49,1.75-2.64,4.39-8.32,3.84-20.37-.16-28.75-1.01-2.12-2.77-3.75-3.66-5.93Z"/>
        <path class="cls-18" d="M386.9,309.98c-3.43-10.76-22.93-11.24-27.56-1.39-.25.52-1.6,4-.68,3.99,6.1-2.53,13.59-1.91,19.62.59,2.79,1.16,4.67,2.92,7.07,4.34,1.2.71.98-.13,1.56-.79-.17.7.22,1.51-.78,2.06-7.41-6.49-18.76-9.17-27.98-5.17-1.99-2.39,1.6-7.1,3.63-8.8,6.77-5.67,18.17-5.61,23.8,1.58.44.56,2.12,2.83,1.33,3.59Z"/>
        <path class="cls-18" d="M185.25,348.34c.31,1.5-.74.95-1.64,1.18-6.17,1.61-12.41,2.94-18.57,4.52,0-.03-.67-.15-.31-.52.71-.79,17.93-4.62,20.53-5.18Z"/>
        <path class="cls-18" d="M83.65,330.2l-.07,9.52c-1.19,9.13-5.98,18.23-16,19.5-.06-.33.07-.76,0-1.04,6.06-.23,10.96-4.39,13.22-9.85.4-.96,1.81-5.75,1.81-6.48v-11.4c0-.27-.83-1.07-.52-1.81,1.49-.42,1.43,1.43,1.55,1.55Z"/>
        <path class="cls-9" d="M382.75,356.11c.16.31.21.36.52.52l.52.52c-.03.78.5.95.52,1.04,1.06,4.07,1.48,7.19.52,11.4-.28.07-.7-.03-1.04,0,1.01-3.77.8-8.22-.53-11.92l-2.07,1.55c.2-1.39-.55-4.41,1.56-3.11Z"/>
        <path class="cls-14" d="M223.09,400.18c-.31,2.42-2.21,5.7-2.54,8.61-.36,3.25.21,5.94.46,9.02-1.63.3-.88-.81-1.05-1.78-.56-3.35-.38-4.07.02-7.31.18-1.46.29-3.62.86-5.43.15-.47,1.27-3.48,2.24-3.11Z"/>
        <path class="cls-18" d="M95.06,51.83l-39.91,7.26c13.19-2.97,26.61-4.91,39.91-7.26Z"/>
        <path class="cls-16" d="M155.71,323.98v19.7c-1.32-.19-.46-5.04-.49-5.97-.15-4.05-.26-8.11-.39-12.07-.03-.96-.81-1.91.88-1.66Z"/>
        <path class="cls-12" d="M42.7,249.33s.48.26.53.51l-4.17,1.4.02,25.05-.55-25.6,4.18-1.35Z"/>
        <path class="cls-9" d="M26.63,259.18c.55-.5.6-.71,1.55-.52.05,5.6,1.53,11.63,0,17.1-.43-4.92-.32-9.87-.52-14.8-.04-1,.53-2.08-1.04-1.79Z"/>
        <path class="cls-18" d="M216.87,37.84c-4.37.2-8.95-2.29-13.19-2.61-4.59-.35-10.75,1.48-15.4,2.27-.98.17-1.68.98-1.47-.7,4,.42,11.01-2.52,15.29-2.48s10.6,2.58,14.77,3.52Z"/>
        <path class="cls-18" d="M40.11,330.71c-2.81-8.49-1.97-16.48,4.15-23.33-5.32,6.79-5.28,15.1-4.15,23.33Z"/>
        <path class="cls-11" d="M90.91,433.87v.52c-6.91-.67-11.22-.6-18.14-2.59v-.52c6.34,1.01,11.61,1.98,18.14,2.59Z"/>
        <path class="cls-14" d="M378.09,369.07c1.22-4.02,2.06-8.95,2.69-13.12l.39-.65,1.58-.23c.09.31-.1.85,0,1.04-2.11-1.3-1.35,1.72-1.56,3.11-.48,3.27-1.01,7.21-3.11,9.85Z"/>
        <path class="cls-18" d="M37.52,358.71c7.41,3.38,15.16,3.61,21.77-1.56-5.84,6.05-15.25,6.5-21.77,1.56Z"/>
        <path class="cls-18" d="M145.86,410.03c.55.81.15,1.25,1.28,1.59,3.28.97,7.07,1.5,10.64,2.56.51.15,1.03.36,1.56.52.38.49.95.9,1.56,1.04.17.04.37-.05.52,0,.31,1.04,1.5,1.09,2.07,1.56.18.15.33.36.52.52v.52c-5.16-3.56-11.25-5.03-17.28-6.3-1.16-.32-.66-1.51-.86-1.99Z"/>
        <path class="cls-18" d="M67.58,357.67c-.04-2.04,1.48-4.42,1.84-6.71.56-3.52.1-8-2.1-10.91-.81,5.23-2.2,11.2-5.64,15.36-.4.48-1.16,1.3-1.87,1.23,4.6-5.22,5.77-10.03,6.22-16.86.04-.57-.29-1.72.77-1.28.61.25,2.26,2.97,2.54,3.68,1.81,4.68,1.08,11.35-1.75,15.49Z"/>
        <path class="cls-18" d="M84.69,330.71c3.19,3.98,3.71,8.79,3.65,13.76-.02,1.34-1.73,5.18,1.02,3.35-.61.59-1.04,1.37-2.07,1.55.58-6.73.41-12.48-2.6-18.66Z"/>
        <path class="cls-11" d="M391.56,357.67c.97-5.71.39-11.39,0-17.11,1.49,5.81,1.68,11.33,0,17.11Z"/>
        <path class="cls-14" d="M141.19,394.47c-1.47,3.01,1.31,4.91,2.53,7.58.8,1.74,2.82,8.61,4.09,8.97,3.04.85,7.77.27,9.97,3.15-3.57-1.06-7.35-1.59-10.64-2.56-1.13-.33-.73-.78-1.28-1.59-2.04-4.85-3.61-9.91-6.64-14.26.25-1.04,1.6-1,1.98-1.29Z"/>
        <path class="cls-18" d="M35.96,290.28c2.8-2.48,5.35-4.47,9.1-5.67,7.56-2.41,14.92-.1,17.33,7.74-5.71.42-10.32,2.77-15.03,5.71,4.26-3.43,8.38-5.75,14-6.22-3.46-11.67-18.2-7.35-25.4-1.55Z"/>
        <path class="cls-11" d="M322.62,359.74c8.37,5.16,18.2-.26,24.88-5.7-5.77,5.2-12.06,9.52-20.44,8.26-1.62-.24-3.53-1.21-4.44-2.56Z"/>
        <path class="cls-11" d="M34.41,315.16c-2.13,1.7-7-1.15-7.88-3.78-2.21-6.59,2.67-13.9,6.85-18.51-4.93,6.55-12.76,21.29,1.04,22.29Z"/>
        <path class="cls-14" d="M366.16,376.33c-.23.63-1.71,3.99-1.55,4.14,1.9.05,1.43-1.51,3.63-.52-1.39.58-3.97,2.57-5.18.52l3.11-4.15Z"/>
        <path class="cls-18" d="M348.02,353.52l2.6-3.62h1.03s0,8.03,0,8.03c0,1-2.42,6.59-3.13,7.75-2.52,4.16-6.41,6.83-9.83,10.13,1.51-2.78,3.67-3.35,5.7-5.45,4.94-5.1,7.06-12.4,6.74-19.44-1.03.81-2.15,1.7-3.11,2.59Z"/>
        <path class="cls-18" d="M32.85,340.56c-4.08,3.73-2.83,9.08-.52,13.48-2.64-2.87-4.06-7.1-2.31-10.86.07-.14,1.79-2.41,1.92-2.5.35-.25.76-.05.91-.12Z"/>
        <path class="cls-10" d="M316.92,105.74l1.92,4.54c1.52.84,1.15,2.77,1.71,4.27-2.44-2.1-2.77-6.09-3.63-8.81Z"/>
        <path class="cls-9" d="M333.51,314.13c-3.72,1.49-7.99,2.22-11.92,3.11v-.52c3.96-.88,7.98-1.75,11.92-2.59Z"/>
        <path class="cls-16" d="M144.3,223.93c1.67-.27.95.77.95,1.75,0,.9,0,1.82,0,2.71,0,.97.73,2.02-.95,1.75v-6.22Z"/>
        <path class="cls-18" d="M48.92,345.23c.05.12.81.09.52,1.03-3.64.37-7.59-1.3-9.85-4.14,2.46,1.59,6.35,4.22,9.33,3.11Z"/>
        <path class="cls-16" d="M144.3,231.19c1.72.71.89,3.1,1.04,4.67h-1.04v-4.67Z"/>
        <path class="cls-12" d="M144.3,219.27v2.59c-.88-2.21-.86-6.19,0-8.29v5.7Z"/>
        <path class="cls-16" d="M144.3,219.27v-7.26c.74,1.83,1.22,5.43,0,7.26Z"/>
        <path class="cls-14" d="M377.57,370.63c-.6,1.7-2.38,3.82-3.63,5.18,1.16-1.61,1.48-4.89,3.63-5.18Z"/>
        <path class="cls-10" d="M320.55,115.07c2.13,2.08,2.83,4.46,4.41,6.74.75,1.09,2.8,1.88,2.85,4.15-3.14-3.36-5.68-6.4-7.26-10.89Z"/>
        <path class="cls-14" d="M372.39,377.37c-.28.24-.42.81-1.07,1.26-.54.38-1.42.49-2.04.82.66-1.2,1.63-2.26,3.11-2.07Z"/>
        <path class="cls-14" d="M224.65,397.07c-.35.91-.81,1.94-1.56,2.59.12-.83-1.07-2.09,1.56-2.59Z"/>
        <path class="cls-14" d="M384.31,325.01c.89.99,1.55,1.21,2.07,2.59-1.86.08-1.57-1.72-2.07-2.59Z"/>
        <path class="cls-14" d="M226.2,394.47c-.45.73-.56,1.71-1.56,2.07.39-.98.09-2.4,1.56-2.07Z"/>
        <path class="cls-16" d="M144.3,207.34v-2.07c.72.65.71,1.44,0,2.07Z"/>
        <path class="cls-18" d="M45.29,340.56c-1-1.17-1.11-.98-2.07-2.59l2.07,2.59Z"/>
        <path class="cls-14" d="M230.35,388.77c-.37.44-.86.81-1.04,1.04-.17-.99.04-1.21,1.04-1.04Z"/>
        <path class="cls-18" d="M45.81,305.83c-.29.26-.73.72-1.04,1.04-.02-.47.27-.71.52-1.04h.52Z"/>
        <path class="cls-12" d="M144.3,210.97c0,.17,0,.35,0,.52l-1.04-.26c0-.49.64-.19,1.04-.26Z"/>
        <path class="cls-16" d="M144.3,210.45l1.04.26c0,.49-.64.19-1.04.26,0-.17,0-.35,0-.52Z"/>
        <path class="cls-18" d="M164.52,356.11c.13-.89.51-.98.52-1.04l-.52,1.04Z"/>
        <path class="cls-23" d="M38.04,220.3c.08-.92.51-.98.52-1.04l-.52,1.04Z"/>
        <path class="cls-18" d="M48.92,344.71c-1.39-.84-2.52-2.11-3.11-3.63,1,1.18,2.33,2.28,3.11,3.63Z"/>
        <path class="cls-14" d="M226.72,393.44c.03-.76.3-1.31,1.04-1.56-.34.49-.7,1.05-1.04,1.56Z"/>
        <path class="cls-18" d="M72.77,431.28v.52c-.29-.08-.76.09-1.04,0-.05-.48.7-.57,1.04-.52Z"/>
        <path class="cls-14" d="M166.07,419.87h-.52v-.52c.19.16.34.39.52.52Z"/>
        <path class="cls-14" d="M164.52,418.32h-.52v-.52c.19.16.33.36.52.52Z"/>
        <path class="cls-14" d="M26.63,88.12l-.51-.26.51-.26c0,.17,0,.35,0,.52Z"/>
        <path class="cls-14" d="M230.87,387.74l.52-.52c-.16.19-.36.33-.52.52Z"/>
        <path class="cls-23" d="M38.55,214.6c-.03-.12-.5-.34-.52-.52l.52.52Z"/>
        <path class="cls-19" d="M345.43,172.09v-3.11c.85.52.83,2.62,0,3.11Z"/>
        <path class="cls-19" d="M345.43,167.43v-1.04s.35.22.35.63c0,.18-.35.31-.35.41Z"/>
        <path class="cls-6" d="M110.09,412.62l1.3,1.52,3.88,7.81-8.29.52c-.33-1.19.82-2.1.96-3,.13-.76-.46-1.09-.45-1.15.17-.84.39-1.11.52-1.56l.96-.06.6-3.05c.18-.33.35-.7.52-1.04Z"/>
        <path class="cls-15" d="M100.5,422.47c.34.17.34.35,0,.52v-.52Z"/>
        <path class="cls-5" d="M215.32,242.59c.42.11,1.07-.08,1.55,0,.14.13-.28.67-.51.78-1.2.57-6.16.86-8.05,1.29-.8.18-.91-.35-.77,1.02,4.58,2,9.17,3.83,13.99,5.19,5.67,1.6,10.74,2.45,16.59,3.11-.29,1.68.85.88,1.81,1.01,9.4,1.25,19.72.87,28.77-1.53.13-.04.33-.47.52-.52.51.96,1.82.46,2.61.29,5.16-1.12,9.82-3.08,14.49-5.47,3.58-1.84,6.93-4.14,10.37-6.22-1.56,7-6.91,11.57-12.44,15.55l-9.23,3.72c-2.68,11.74-6.1,23.35-11.5,34.12-2.71,3.8-5.52,7.11-9.33,9.85-5.56,2.24-11.17,3.31-17.11,1.81-3.16-.8-5.74-2.92-8.81-3.89-9.7-7.16-15.74-16.42-21.25-26.96l-9.34-26.96c-2.81.5-5.22,1.99-7.77,3.11-.87.38-1.6,1.11-2.59,1.03-.07-2.31.69-4.63,1.55-6.74,7.24-7.69,17.25-6.02,26.44-3.63ZM261.45,263.85c-19.08,1.23-35.79-2.78-52.87-10.88,0,.67-.13,1.29.15,1.94.2.48,6.77,6.4,7.67,7.09,7,5.37,16.99,10.04,25.88,10.67,5.75.41,11.66-1.16,16.59-4.15,1.72-1.04,5.19-2.95,4.15-5.18-.67-.35-1.42.51-1.56.52ZM242.79,289.25c-7.41-7.89-15.45-14.15-26.95-13.99,3.69,7.77,11.02,16.35,18.65,20.48,4.67,2.53,11.51,3.59,16.26.69,8.38-5.12-7.73-16.74-13.14-17.02,2.26,2.92,4.53,6.1,5.18,9.84Z"/>
        <path class="cls-7" d="M225.69,168.98l6.32,10.53c5.1,12.06,5.66,26.02,1.45,38.19-.96.11-.43-1.09-.36-1.66.16-1.36.78-3.04.81-4.32,0-.41-.44-.69-.44-.75.05-8.98-1.23-17.88-5.43-25.93-6.13-11.75-21.18-22.25-34.48-15.53-.24,1.34.19.8.73,1.08,3.92,1.99,4.61,2.28,7.56,5.65,2.22,3.51,4.75,7.3,6.11,11.26,3.21,9.35,3.54,23.46-2.48,31.76-1.05,1.45-2.61,2.72-3.89,4.15-.31.35-1.24.41-1.32.78-.47,2.36,3.08,1.69,4.16,3.1l-2.58.78c-18.23-2.2-28.35-13.67-29.1-32.07-4.94-1.18-10.38-5.77-11.85-10.7-.53-1.77,3.45.72,4.24.94,2.39.67,4.93.96,7.37,1.44.33-.04.77-2.02.79-2.46.08-1.46-1.87-2.14-3.06-3.56-3.7-4.39-5.67-10.07-5.72-15.79l6.21,6.48,4.14,2.85c8.69-24.49,34.95-24.64,50.81-6.22ZM200.64,183.66c-5.03-5.6-10.51,8.21-4.9,10.86,6.01,2.83,8.24-7.14,4.9-10.86Z"/>
        <path class="cls-6" d="M233.46,210.97c-.99,4.34-1.94,8.52-4.15,12.44-4.79,3.53-12.31,4.91-18.14,5.18l-10.37-3.11c-.06-1.77,2.16-2.3,3.11-3.37.62-.7,1-1.59,1.56-2.33,9.59-12.6,6.36-32.13-3.63-43.54-2.95-3.37-3.64-3.67-7.56-5.65-.55-.28-.97.27-.73-1.08,13.3-6.72,28.35,3.78,34.48,15.53,4.2,8.05,5.48,16.95,5.43,25.93Z"/>
        <path class="cls-24" d="M288.93,231.19c-2.5,4.76-10.29,8.12-15.55,7.25-.22-1,.51-1.24,1.08-1.76,3.41-3.11,7.98-5.64,8.71-10.98,1.1-8.03-5.94-4.91-9.02-11.62-6.36-13.88,9.26-33.89,23.85-35.24,6.15-.57,11.86,2.17,15.93,1.95,4.75-.25,12.79-5.37,16.21-8.69.81,4.06-2.11,7.62-4.4,10.64l-5.19,4.39c2.45.25,4.7-.27,7.02-1.01,2.18-.7,3.98-2.08,5.94-3.13-1.1,6.93-7.25,10.9-13.87,11.79s-8.02-2.89-13.58-3.78c-12.41-1.98-24.29,9.45-30.61,18.94,7.38.66,15.08,6.28,15.07,14.26,0,1.45-.92,5.72-1.59,7Z"/>
        <path class="cls-24" d="M230.87,155.51c-11.45-10.56-28.65-19.89-44.69-16.44-9.01,1.93-18.03,9.14-23.22,16.44-.81.14-.56-.74-.53-1.31.38-6.88,8.01-16.78,13.25-20.97,21.46-17.15,46.61.82,55.19,22.28Z"/>
        <path class="cls-24" d="M324.17,138.92l-4.9-7.27c-13.49-14.01-30.15,9.01-38.23,18.83l-7.66,12.81c.49-16.33,11.11-39.26,26.76-46.06s24.23,7.44,24.02,21.69Z"/>
        <path class="cls-17" d="M296.7,241.56c-3.43,2.08-6.78,4.39-10.37,6.22-4.26,1.18-8.32,2.98-12.55,4.29-1.48.46-3.09.49-4.55.89-.19.05-.39.48-.52.52l-18.38,1.59c-4.08-.33-8.14-.61-12.2-1.07-5.85-.66-10.91-1.51-16.59-3.11,1.9-2.03,1.34-.15,1.92-.02,22.35,4.95,46.29,4.93,66.85-6.11,1.71-.92,3.45-2.5,4.99-3.31.52-.27,1.29-.89,1.4.11Z"/>
        <path class="cls-16" d="M237.09,194.9c.37,3.96-.27,8.42,0,12.44-.99,5.81-2.83,12.43-7.78,16.07,2.21-3.92,3.16-8.1,4.15-12.44,0,.07.45.34.44.75-.03,1.28-.65,2.96-.81,4.32-.07.57-.6,1.77.36,1.66,4.2-12.18,3.64-26.14-1.45-38.19l-6.32-10.53c5.64,6.55,10.6,17.27,11.4,25.92Z"/>
        <path class="cls-17" d="M188.88,246.22c1.09-2.66,3.39-3.94,6.1-5.04,5.47-2.22,13.98-1.3,19.63.31,1.06.3,1.71-.45.7,1.1-9.19-2.39-19.2-4.06-26.44,3.63Z"/>
        <path class="cls-17" d="M284.26,257.11c-3.06,2.2-5.67,3.14-8.72,5.02-1.83,8-4.2,15.81-7.12,23.47-1.54,4.02-2.17,5.54-4.89,9.35,5.4-10.77,8.83-22.38,11.5-34.12l9.23-3.72Z"/>
        <path class="cls-17" d="M189.92,251.92c2.55-1.12,4.96-2.61,7.77-3.11l9.34,26.96c-1.66-3.18-3.18-6.22-4.54-9.72-2.04-5.29-3.8-10.75-5.32-16.2l-7.25,2.08Z"/>
        <path class="cls-3" d="M254.2,304.8c-7.89,5.68-18.54,3.37-25.92-2.07,3.08.97,5.65,3.09,8.81,3.89,5.93,1.49,11.55.42,17.11-1.81Z"/>
        <path class="cls-1" d="M205.47,219.78c-.56.74-.94,1.63-1.56,2.33-.95,1.07-3.17,1.59-3.11,3.37l10.37,3.11c-3.4.16-6.13-.13-9.33-.52l2.58-.78c-1.08-1.41-4.63-.74-4.16-3.1.08-.38,1.01-.43,1.32-.78,1.28-1.43,2.84-2.7,3.89-4.15v.52Z"/>
        <path class="cls-3" d="M237.09,207.34c-.27-4.03.37-8.48,0-12.44.74-1.4.52.9.52,1.29,0,3.9.13,7.35-.52,11.15Z"/>
        <path class="cls-14" d="M159.34,414.69c.23.07,1.95-.79,1.56,1.04-.6-.14-1.18-.55-1.56-1.04Z"/>
        <path class="cls-14" d="M161.41,415.73c1.04.32,1.64-.56,2.07,1.56-.58-.46-1.77-.52-2.07-1.56Z"/>
        <path class="cls-14" d="M383.27,356.63c.19.1.72-.08,1.04,0l-.52.51-.52-.52Z"/>
        <path class="cls-23" d="M144.3,158.1c-.23-.17-.35-.32-.35-.62,0-.18.35-.32.35-.41v1.04Z"/>
        <path class="cls-8" d="M143.78,144.62c0-.17,0-.35,0-.52l.51.26-.51.26Z"/>
        <path class="cls-14" d="M109.57,413.65l-.6,3.05-.96.06c.47-1.63.91-1.9,1.56-3.11Z"/>
        <path class="cls-2" d="M242.79,289.25c-.65-3.75-2.92-6.93-5.18-9.84,5.41.28,21.52,11.9,13.14,17.02-4.75,2.9-11.58,1.84-16.26-.69-7.63-4.13-14.96-12.72-18.65-20.48,11.49-.16,19.54,6.1,26.95,13.99Z"/>
        <path class="cls-4" d="M246.94,264.36c.57.87,2.13.5,3.11.52.35,0,.69,0,1.04,0,1.03,0,2.08.05,3.11,0,2.3-.11,4.78-.93,7.26-.52h1.04s0,.77,0,.77l-3.62,3.38c-4.93,2.99-10.84,4.56-16.59,4.15.29-1.67-.84-.87-1.81-1.02-12.57-1.97-23.37-7.77-31.37-17.64,12.21,5.08,24.35,10.2,37.84,10.36Z"/>
        <path class="cls-18" d="M261.45,263.85v.52c-2.48-.42-4.95.41-7.26.52-.49-.83-2.59-.85-3.11,0-.35,0-.69,0-1.04,0-.56-.87-2.13-.51-3.11-.52-13.49-.16-25.63-5.28-37.84-10.36,8,9.86,18.8,15.67,31.37,17.64.96.15,2.1-.65,1.81,1.02-8.88-.63-18.87-5.3-25.88-10.67-.9-.69-7.47-6.61-7.67-7.09-.27-.65-.15-1.27-.15-1.94,17.08,8.11,33.79,12.11,52.87,10.88Z"/>
        <path class="cls-10" d="M268.71,253.48c-9.05,2.4-19.37,2.78-28.77,1.53-.97-.13-2.11.66-1.81-1.01,4.06.46,8.12.74,12.2,1.07l18.38-1.59Z"/>
        <path class="cls-10" d="M286.34,247.78c-4.67,2.39-9.34,4.35-14.49,5.47-.8.17-2.1.68-2.61-.29,1.46-.4,3.07-.43,4.55-.89,4.23-1.31,8.29-3.11,12.55-4.29Z"/>
        <path class="cls-9" d="M261.45,263.85c.13,0,.89-.86,1.56-.52,1.04,2.23-2.42,4.14-4.15,5.18l3.62-3.38v-.77s-1.03,0-1.03,0v-.52Z"/>
        <path class="cls-4" d="M200.64,183.66c3.34,3.72,1.11,13.69-4.9,10.86-5.61-2.64-.14-16.46,4.9-10.86Z"/>
        <path class="cls-18" d="M205.47,219.78v-.52c6.02-8.3,5.69-22.41,2.48-31.76-1.36-3.96-3.89-7.75-6.11-11.26,9.99,11.41,13.21,30.94,3.63,43.54Z"/>
        <path class="cls-9" d="M254.2,264.88c-1.03.05-2.08,0-3.11,0,.52-.85,2.62-.83,3.11,0Z"/>
        <path class="cls-9" d="M250.05,264.88c-.98-.02-2.54.35-3.11-.52.98.01,2.55-.35,3.11.52Z"/>
      </g>
    </g>
  </g>
</svg>